<?xml version="1.0" encoding="UTF-8"?>
<svg version="1.1" xmlns="http://www.w3.org/2000/svg" width="733" height="639">
<path d="M0 0 C7.45540073 6.87779436 13.92118939 14.6355023 20.2734375 22.52734375 C23.20912696 26.1044837 26.24136949 29.58908943 29.28515625 33.07421875 C33.47664238 37.88232835 37.57059771 42.73526212 41.51953125 47.74609375 C44.43997345 51.41218077 47.42538656 55.02293903 50.41015625 58.63671875 C59.21793287 69.30961583 67.95854431 80.03535254 76.58984375 90.8515625 C83.99725462 100.09047605 91.49871593 109.25293036 99.03515625 118.38671875 C104.82340247 125.40482014 110.55778873 132.4578435 116.15625 139.62890625 C121.83984899 146.90849091 127.63719291 154.0779954 133.52758789 161.19140625 C137.63447416 166.16168798 141.64893555 171.19392694 145.61376953 176.27783203 C151.21049735 183.44156202 156.97434639 190.46953376 162.72265625 197.51171875 C168.92699569 205.11258009 175.12601339 212.71211408 181.16015625 220.44921875 C185.91459223 226.54437933 190.8120187 232.51456587 195.73754883 238.47192383 C200.12181634 243.77524893 204.44116353 249.12506061 208.72265625 254.51171875 C209.64274152 255.66054697 210.56335668 256.80895092 211.484375 257.95703125 C217.48146524 265.43442822 223.43736991 272.94208184 229.34765625 280.48828125 C231.45777455 283.17451738 233.58875212 285.84433858 235.72265625 288.51171875 C236.05265625 224.82171875 236.38265625 161.13171875 236.72265625 95.51171875 C298.73596002 95.51171875 298.73596002 95.51171875 308.72265625 103.51171875 C316.58083294 112.2532502 316.01814419 123.91711659 315.99681091 134.98370361 C316.00126893 136.44651301 316.00658482 137.90931999 316.01267964 139.37212348 C316.02680211 143.37426886 316.02852403 147.37633636 316.02808273 151.37850308 C316.029736 155.70175852 316.04281188 160.02498234 316.05427551 164.34822083 C316.0770836 173.792474 316.08504135 183.23670465 316.09010196 192.68098164 C316.09336332 198.58199967 316.09988838 204.48301121 316.10710335 210.38402557 C316.12666243 226.73471491 316.14307115 243.08539822 316.14597988 259.43610001 C316.14616745 260.48151561 316.14635502 261.5269312 316.14654827 262.60402606 C316.14691452 264.72315486 316.14727821 266.84228366 316.14763939 268.96141246 C316.1478222 270.01329186 316.14800501 271.06517125 316.14819336 272.14892578 C316.14846418 273.72867882 316.14846418 273.72867882 316.14874048 275.34034607 C316.15228225 292.40591129 316.17930794 309.47135035 316.21669125 326.53687182 C316.2547989 344.07388872 316.27413753 361.61084304 316.27443939 379.14790225 C316.27502334 388.9879189 316.2834755 398.82778495 316.31243706 408.66776276 C316.33698361 417.04593344 316.34421161 425.42389856 316.32918953 433.8020955 C316.32203449 438.07318103 316.32281714 442.34386089 316.34560013 446.61490059 C316.3662952 450.53219083 316.36349286 454.44876623 316.34272528 458.36604962 C316.33925041 459.77583303 316.34405468 461.18566915 316.35842972 462.59538355 C316.46428331 473.70034234 314.45706449 484.94026228 307.3515625 493.89453125 C297.63427309 503.5419121 286.58320799 508.24478196 273.03515625 508.76171875 C258.3566788 508.56125396 246.22440417 502.33733122 236.10058594 492.00097656 C232.70042752 488.32610655 229.6969638 484.33513745 226.671875 480.3515625 C223.47062601 476.14180547 220.10254239 472.07848054 216.72265625 468.01171875 C212.48531702 462.89772811 208.30197723 457.75267062 204.22265625 452.51171875 C199.02863989 445.84302417 193.6585933 439.32719279 188.2734375 432.8125 C180.77203658 423.73660443 173.33588967 414.61166786 166.09765625 405.32421875 C162.13608169 400.24118745 158.03861314 395.30000068 153.84716797 390.40551758 C150.05235055 385.95351597 146.44488504 381.37210366 142.85644531 376.75317383 C139.20911009 372.07945608 135.41077724 367.5523301 131.55981445 363.04589844 C128.5232816 359.48398943 125.62460305 355.84894538 122.78125 352.1328125 C119.90950164 348.47637388 116.93791954 344.90497367 113.97265625 341.32421875 C109.58587205 336.02530795 105.25721573 330.69282253 101.03515625 325.26171875 C97.53001713 320.75502001 93.93481666 316.34945787 90.22265625 312.01171875 C86.01338891 307.09209566 81.9711515 302.0672194 77.99267578 296.9597168 C72.34617982 289.72120879 66.53099702 282.62049217 60.72265625 275.51171875 C59.95308594 274.568125 59.18351563 273.62453125 58.390625 272.65234375 C55.08789291 268.60818201 51.77488636 264.57286848 48.4453125 260.55078125 C42.43452968 253.28348376 36.48614685 245.98407323 30.69580078 238.53979492 C27.62894718 234.61577772 24.46063375 230.79537132 21.22265625 227.01171875 C16.04495416 220.96012338 11.10516241 214.73997347 6.22454834 208.44732666 C4.5026587 206.22819039 2.77829958 204.01098465 1.05371094 201.79394531 C0.42841492 200.99007385 -0.1968811 200.18620239 -0.84112549 199.35797119 C-1.31507751 198.74870789 -1.78902954 198.13944458 -2.27734375 197.51171875 C-2.27823938 198.33475112 -2.27823938 198.33475112 -2.27915311 199.1744104 C-2.3150989 231.74217152 -2.37181722 264.30982145 -2.4552647 296.87749362 C-2.46528136 300.79373561 -2.47512563 304.70997801 -2.48486328 308.6262207 C-2.48777534 309.79563032 -2.48777534 309.79563032 -2.49074623 310.98866438 C-2.5217112 323.58825326 -2.53873148 336.18782396 -2.55053797 348.7874437 C-2.56297812 361.72959981 -2.59054386 374.67166095 -2.63195682 387.61375707 C-2.65701054 395.59053638 -2.670467 403.56715805 -2.66877332 411.54397725 C-2.66873986 417.6753944 -2.68981845 423.80657917 -2.71851158 429.93792534 C-2.7269908 432.44236258 -2.72877407 434.94683342 -2.72314644 437.45127869 C-2.67801461 460.63424022 -5.48899533 479.08784925 -22.27734375 496.51171875 C-38.52551643 510.61298573 -57.19332162 515.38638342 -78.27734375 514.51171875 C-96.35070676 512.90621696 -113.01645842 504.93748691 -125.27734375 491.51171875 C-130.67863245 484.4802077 -137.27734375 475.65267352 -137.27734375 466.51171875 C-138.26734375 466.18171875 -139.25734375 465.85171875 -140.27734375 465.51171875 C-139.61734375 465.51171875 -138.95734375 465.51171875 -138.27734375 465.51171875 C-138.4186162 464.9812867 -138.55988864 464.45085466 -138.70544207 463.90434891 C-140.64693844 455.64690305 -140.56270553 447.43754998 -140.54476929 439.01023865 C-140.54851008 437.33905284 -140.55311331 435.66786878 -140.55849993 433.99668747 C-140.57069254 429.42304221 -140.57047388 424.8494703 -140.56811118 420.27581251 C-140.56770206 415.33559194 -140.57875133 410.3953946 -140.58822632 405.45518494 C-140.60481737 395.78268046 -140.61033503 386.11020037 -140.61145107 376.43768286 C-140.61240256 368.57145386 -140.61651789 360.70523288 -140.62285233 352.83900642 C-140.64046049 330.51716357 -140.649692 308.19533993 -140.64819138 285.87349009 C-140.64811147 284.67089021 -140.64803155 283.46829034 -140.64794922 282.22924805 C-140.64786746 281.02517274 -140.6477857 279.82109744 -140.64770146 278.580535 C-140.64688895 259.0766453 -140.66601897 239.5728329 -140.69422595 220.06896555 C-140.72298679 200.0232714 -140.73676445 179.9776149 -140.7350384 159.93189961 C-140.73437555 148.68557378 -140.73982176 137.43932897 -140.7613945 126.19302177 C-140.77964854 116.61570356 -140.7839191 107.03850308 -140.77037565 97.46117496 C-140.76386697 92.58004971 -140.76365246 87.69915005 -140.78108215 82.81804657 C-140.79691157 78.33877844 -140.7938496 73.85991289 -140.77651389 69.38065398 C-140.77346553 67.77096879 -140.77699347 66.1612528 -140.78823404 64.55160397 C-140.87879252 50.64896601 -139.2668987 36.40964534 -132.46484375 24.01171875 C-131.94337769 23.022323 -131.94337769 23.022323 -131.41137695 22.01293945 C-128.54707259 16.71570579 -125.3486303 11.96570624 -121.27734375 7.51171875 C-120.4884375 6.63128906 -119.69953125 5.75085938 -118.88671875 4.84375 C-86.9488994 -29.0084708 -34.87133588 -29.55282997 0 0 Z " fill="#405EFE" transform="translate(193.27734375,72.48828125)"/>
<path d="M0 0 C1.89303781 -0.01616466 3.78611624 -0.02760761 5.67919922 -0.03710938 C7.26050125 -0.04744202 7.26050125 -0.04744202 8.87374878 -0.0579834 C37.29246056 0.46910588 61.63159652 16.21261287 80.90625 35.94140625 C87.98007643 43.33576957 94.64658498 50.97911783 101 59 C102.49699464 60.83578816 103.99704882 62.66908524 105.5 64.5 C107.7299804 67.22381689 109.95835987 69.94880801 112.1796875 72.6796875 C115.81017517 77.1370478 119.46754209 81.56659495 123.19433594 85.94360352 C125.04932019 88.12368484 126.89563056 90.31095304 128.73828125 92.50146484 C129.89484256 93.87510519 131.05654304 95.24441425 132.21875 96.61328125 C132.8478125 97.38027344 133.476875 98.14726562 134.125 98.9375 C134.66382813 99.58589844 135.20265625 100.23429687 135.7578125 100.90234375 C138.96655775 106.32088525 138.13456797 113.35436335 138.10920715 119.45323181 C138.10880029 120.50541493 138.10839342 121.55759806 138.10797423 122.64166552 C138.10527699 126.16730353 138.0952656 129.69288172 138.08520508 133.21850586 C138.08160874 135.74674428 138.07840389 138.27498328 138.07556152 140.80322266 C138.06520997 148.39005692 138.04608981 155.9768513 138.02530077 163.5636631 C138.01570211 167.14254894 138.00713609 170.72143724 137.99844933 174.30032539 C137.96915069 186.20817168 137.93737055 198.11600729 137.89822865 210.02382565 C137.88810936 213.11101717 137.87799775 216.19820873 137.86791992 219.28540039 C137.86541305 220.05264195 137.86290617 220.81988351 137.86032333 221.61037482 C137.82021804 234.02528295 137.79700691 246.44016159 137.78094129 258.85512178 C137.76415254 271.62119366 137.73238919 284.38715977 137.68605727 297.1531592 C137.66043524 304.31269266 137.64119451 311.47211445 137.63868141 318.6316967 C137.63625828 325.37300504 137.61341306 332.11394627 137.57712555 338.8551712 C137.56705883 341.3209075 137.56366207 343.78668207 137.56765556 346.25243568 C137.59781897 369.3038736 134.68455316 387.68385493 118 405 C101.75182732 419.10126698 83.08402213 423.87466467 62 423 C43.92663699 421.39449821 27.26088533 413.42576816 15 400 C9.5987113 392.96848895 3 384.14095477 3 375 C2.01 374.67 1.02 374.34 0 374 C0.66 374 1.32 374 2 374 C1.85841528 373.45239663 1.71683056 372.90479326 1.5709554 372.34059584 C-0.2323399 364.54981221 -0.27493028 356.93943773 -0.24050903 348.97860718 C-0.2413824 347.46854856 -0.24313578 345.95849024 -0.24568737 344.44843352 C-0.25013918 340.32081486 -0.24218717 336.19330086 -0.23213124 332.06569552 C-0.22346767 327.60638873 -0.22641896 323.1470875 -0.22793579 318.68777466 C-0.22898281 310.96896347 -0.22272539 303.25018618 -0.21146011 295.53138351 C-0.19518319 284.37139286 -0.18999486 273.21141854 -0.18748413 262.05141731 C-0.18311047 243.94361137 -0.16981028 225.83582348 -0.15087891 207.72802734 C-0.1325116 190.14143972 -0.11835926 172.554857 -0.10986328 154.96826172 C-0.10933783 153.88362256 -0.10881239 152.79898341 -0.10827102 151.6814764 C-0.10566088 146.23998084 -0.10313348 140.79848524 -0.10064721 135.35698962 C-0.07992495 90.23798058 -0.04470837 45.11899122 0 0 Z " fill="#3C51F9" transform="translate(53,164)"/>
<path d="M0 0 C3.95072734 0.00259215 7.90145277 0.00016776 11.85218024 -0.00138617 C18.47196099 -0.00318732 25.09173045 -0.00085519 31.71150947 0.00395441 C39.29891758 0.00940435 46.88629883 0.00762068 54.47370631 0.00212801 C61.06732361 -0.00244888 67.66093296 -0.00303188 74.25455135 -0.00043333 C78.1583076 0.00110311 82.06205134 0.0013973 85.96580672 -0.00196981 C113.59187648 -0.02237692 113.59187648 -0.02237692 127.18563056 0.54887629 C128.05582737 0.58340843 128.92602418 0.61794058 129.82259059 0.65351915 C141.76536047 1.24575492 149.40713426 5.27614088 157.50521064 14.1343255 C162.81578256 20.89096865 164.70130517 27.82651389 164.91927314 36.41948175 C164.93859397 37.10590754 164.9579148 37.79233332 164.97782111 38.49955988 C165.03772659 40.73185676 165.08415415 42.96420376 165.13021064 45.1968255 C165.16953556 46.74883944 165.20933623 48.30084138 165.2495954 49.85283136 C165.43756464 57.58289791 165.5317168 65.30827629 165.49349189 73.0405755 C165.48892982 74.08488985 165.48892982 74.08488985 165.48427558 75.15030146 C165.46695505 78.45609978 165.43367268 81.76077298 165.38069892 85.06621027 C165.36893622 86.23466486 165.35717353 87.40311945 165.34505439 88.60698175 C165.32821601 89.63057795 165.31137763 90.65417414 165.294029 91.70878839 C165.25916553 94.31701969 165.25916553 94.31701969 167.50521064 96.1343255 C167.50521064 97.1243255 167.50521064 98.1143255 167.50521064 99.1343255 C163.54521064 99.1343255 159.58521064 99.1343255 155.50521064 99.1343255 C155.17521064 99.7943255 154.84521064 100.4543255 154.50521064 101.1343255 C154.50521064 100.4743255 154.50521064 99.8143255 154.50521064 99.1343255 C153.36611243 99.29763865 152.22701423 99.46095179 151.05339789 99.62921381 C146.59457287 100.1835637 142.22208541 100.25526582 137.73421454 100.21611261 C136.89745185 100.21304605 136.06068915 100.2099795 135.19857001 100.20682001 C133.39692049 100.19971087 131.5952787 100.19034556 129.79365134 100.17892504 C126.94443726 100.16144013 124.09527991 100.15120732 121.24602485 100.14300776 C113.15056232 100.11862426 105.05517729 100.08277555 96.95980048 100.03837824 C91.99690857 100.01166279 87.0340598 99.99458008 82.07110953 99.98350954 C80.18038934 99.97728982 78.28967778 99.96727222 76.39899802 99.95343065 C73.76588848 99.93430653 71.13300895 99.92733221 68.49983954 99.92314386 C67.32323264 99.91000147 67.32323264 99.91000147 66.1228559 99.89659357 C61.85198218 99.74640106 61.85198218 99.74640106 58.50521064 102.1343255 C56.50521064 101.46765884 54.50521064 100.80099217 52.50521064 100.1343255 C51.51521064 100.1343255 50.52521064 100.1343255 49.50521064 100.1343255 C49.50521064 100.7943255 49.50521064 101.4543255 49.50521064 102.1343255 C48.84521064 101.8043255 48.18521064 101.4743255 47.50521064 101.1343255 C47.83521064 100.4743255 48.16521064 99.8143255 48.50521064 99.1343255 C45.04021064 99.6293255 45.04021064 99.6293255 41.50521064 100.1343255 C41.50521064 100.7943255 41.50521064 101.4543255 41.50521064 102.1343255 C40.84521064 102.1343255 40.18521064 102.1343255 39.50521064 102.1343255 C39.17521064 101.4743255 38.84521064 100.8143255 38.50521064 100.1343255 C37.02021064 99.6393255 37.02021064 99.6393255 35.50521064 99.1343255 C35.17521064 99.7943255 34.84521064 100.4543255 34.50521064 101.1343255 C33.51521064 101.1343255 32.52521064 101.1343255 31.50521064 101.1343255 C31.83521064 100.4743255 32.16521064 99.8143255 32.50521064 99.1343255 C31.40587195 99.29665674 30.30653327 99.45898798 29.17388129 99.62623835 C24.04666565 100.26295438 18.96707798 100.27450465 13.80648017 100.26372004 C12.24409865 100.26634851 12.24409865 100.26634851 10.65015388 100.26903009 C7.22942637 100.27340884 3.80875111 100.27052595 0.38802314 100.267138 C-1.99471825 100.26781188 -4.37745958 100.2687826 -6.76020074 100.27003717 C-11.74139843 100.27150849 -16.72257814 100.26937663 -21.70377374 100.2646966 C-28.09980397 100.25898103 -34.49579242 100.26229342 -40.89182115 100.26826906 C-45.80557344 100.2718741 -50.71931574 100.27073668 -55.63306832 100.26814127 C-57.9926748 100.2674728 -60.35228217 100.26829763 -62.7118876 100.27062082 C-65.99875845 100.27314839 -69.28556039 100.26930609 -72.57242608 100.26372004 C-73.55319619 100.26574427 -74.5339663 100.2677685 -75.54445672 100.26985407 C-76.88171052 100.26562433 -76.88171052 100.26562433 -78.24597955 100.26130915 C-79.02280021 100.26093212 -79.79962087 100.2605551 -80.59998155 100.26016665 C-82.49478936 100.1343255 -82.49478936 100.1343255 -84.49478936 99.1343255 C-84.58791042 90.32789214 -84.65876603 81.52163107 -84.70203805 72.71481085 C-84.72281777 68.62440894 -84.75095668 64.53434654 -84.79654717 60.44413996 C-84.84035196 56.48890443 -84.86399857 52.53399324 -84.87429833 48.57853365 C-84.88162817 47.07759551 -84.89593983 45.57667296 -84.91770959 44.07587481 C-85.09458191 31.36439754 -83.16539968 19.97508456 -74.49478936 10.1343255 C-65.7844409 2.87040352 -57.78997742 0.6772811 -46.66983819 0.45512629 C-45.49171721 0.4220393 -44.31359622 0.38895231 -43.0997746 0.35486269 C-28.73596159 -0.0071888 -14.36738084 -0.012446 0 0 Z M164.50521064 96.1343255 C165.16521064 96.7943255 165.82521064 97.4543255 166.50521064 98.1343255 C166.50521064 97.4743255 166.50521064 96.8143255 166.50521064 96.1343255 C165.84521064 96.1343255 165.18521064 96.1343255 164.50521064 96.1343255 Z " fill="#0E1B5C" transform="translate(514.4947893619537,50.86567449569702)"/>
<path d="M0 0 C62.01330377 0 62.01330377 0 72 8 C79.85817669 16.74153145 79.29548794 28.40539784 79.27415466 39.47198486 C79.27861268 40.93479426 79.28392857 42.39760124 79.29002339 43.86040473 C79.30414586 47.86255011 79.30586778 51.86461761 79.30542648 55.86678433 C79.30707975 60.19003977 79.32015563 64.51326359 79.33161926 68.83650208 C79.35442735 78.28075525 79.3623851 87.7249859 79.36744571 97.16926289 C79.37070707 103.07028092 79.37723213 108.97129246 79.3844471 114.87230682 C79.40400618 131.22299616 79.4204149 147.57367947 79.42332363 163.92438126 C79.42360499 165.49250465 79.42360499 165.49250465 79.42389202 167.09230731 C79.42425827 169.21143611 79.42462196 171.33056491 79.42498314 173.44969371 C79.42525735 175.0275128 79.42525735 175.0275128 79.42553711 176.63720703 C79.42571766 177.69037573 79.42589821 178.74354442 79.42608423 179.82862732 C79.429626 196.89419254 79.45665169 213.9596316 79.494035 231.02515307 C79.53214265 248.56216997 79.55148128 266.09912429 79.55178314 283.6361835 C79.55236709 293.47620015 79.56081925 303.3160662 79.58978081 313.15604401 C79.61432736 321.53421469 79.62155536 329.91217981 79.60653328 338.29037675 C79.59937824 342.56146228 79.60016089 346.83214214 79.62294388 351.10318184 C79.64363895 355.02047208 79.64083661 358.93704748 79.62006903 362.85433087 C79.61659416 364.26411428 79.62139843 365.6739504 79.63577347 367.0836648 C79.74162706 378.18862359 77.73440824 389.42854353 70.62890625 398.3828125 C60.91161684 408.03019335 49.86055174 412.73306321 36.3125 413.25 C20.38649164 413.03249761 8.9981239 405.76812512 -2 395 C-1.67 394.34 -1.34 393.68 -1 393 C-0.56429688 393.47050781 -0.12859375 393.94101562 0.3203125 394.42578125 C3.95169253 398.22222401 7.07676948 400.93911281 12 403 C12.66 403.33 13.32 403.66 14 404 C14 404.66 14 405.32 14 406 C15.98 406.33 17.96 406.66 20 407 C20 407.66 20 408.32 20 409 C21.5778125 408.9690625 21.5778125 408.9690625 23.1875 408.9375 C27.6961003 409.01141148 31.66062354 409.87497647 36 411 C36 410.34 36 409.68 36 409 C36.99 409.33 37.98 409.66 39 410 C40.66362417 410.34820041 42.32995171 410.68404492 44 411 C44 410.34 44 409.68 44 409 C47.28696233 408.20046862 48.71023192 407.90341064 52 409 C52.33 408.34 52.66 407.68 53 407 C53.66 407.33 54.32 407.66 55 408 C55 407.34 55 406.68 55 406 C56.65 405.67 58.3 405.34 60 405 C60 404.01 60 403.02 60 402 C61.670625 401.1646875 61.670625 401.1646875 63.375 400.3125 C66.85420947 398.33932108 67.75269344 396.83786634 69 393 C69.66 392.360625 70.32 391.72125 71 391.0625 C75.29229548 386.63607029 75.3189917 380.92637216 75.4140625 375.05078125 C75.44324768 373.90819351 75.44324768 373.90819351 75.47302246 372.74252319 C75.533366 370.26596036 75.5797974 367.78938196 75.625 365.3125 C75.6622275 363.58894053 75.6998283 361.86538909 75.73779297 360.1418457 C76.01081712 347.15444815 76.20320065 334.16768314 76.02832031 321.17773438 C75.99849449 317.83107173 76.027256 314.48726794 76.0546875 311.140625 C76.46096147 298.09460559 76.46096147 298.09460559 71.0625 286.75 C70.35222656 286.10546875 69.64195312 285.4609375 68.91015625 284.796875 C67 283 67 283 66.12109375 280.734375 C64.47902377 276.72932627 61.76989561 273.79177145 59 270.5 C57.81375222 269.06622164 56.62887096 267.63131165 55.4453125 266.1953125 C54.56601074 265.13038574 54.56601074 265.13038574 53.66894531 264.04394531 C51.3454165 261.19833629 49.1007043 258.29739919 46.875 255.375 C38.94313644 244.99077283 30.84436355 234.75261111 22.57299805 224.63647461 C19.64851076 221.05436335 16.78762523 217.4405734 14 213.75 C11.62432325 210.65103552 9.13699093 208.35274319 6 206 C3 202.5862069 3 202.5862069 3 199 C2.34 199 1.68 199 1 199 C1 198.34 1 197.68 1 197 C0.34 197 -0.32 197 -1 197 C-1.99 194.525 -1.99 194.525 -3 192 C-2.34 192.33 -1.68 192.66 -1 193 C-0.67 129.31 -0.34 65.62 0 0 Z " fill="#6D29FA" transform="translate(430,168)"/>
<path d="M0 0 C1.38667374 0.00382187 1.38667374 0.00382187 2.80136108 0.00772095 C8.05432774 0.02422392 13.30716864 0.05085166 18.56005859 0.08349609 C23.94581753 0.1163478 29.33145353 0.13483846 34.71728516 0.14697266 C41.73772833 0.16361129 48.75778016 0.2019128 55.77800179 0.2603035 C59.6760476 0.2922992 63.57373997 0.31615299 67.47192383 0.32000732 C71.18561285 0.32423562 74.89838943 0.35257126 78.61179161 0.39830589 C79.98976014 0.41123749 81.36783756 0.41577108 82.74585915 0.41118813 C90.64196584 0.39079742 97.02170407 0.52030894 103 6.125 C106.79188954 10.4122201 106.47196435 15.06651319 106.51171875 20.5234375 C106.52976059 21.45434708 106.54780243 22.38525665 106.56639099 23.34437561 C106.62138824 26.39621079 106.65501419 29.44784862 106.6875 32.5 C106.71968506 34.61728205 106.75273399 36.73455114 106.78662109 38.85180664 C106.88273822 45.27603032 106.94613811 51.7002984 107 58.125 C107.00860046 59.0954425 107.01720093 60.06588501 107.02606201 61.06573486 C107.07879336 67.23131846 107.11065311 73.39671266 107.125 79.5625 C107.12776947 80.34413513 107.13053894 81.12577026 107.13339233 81.93109131 C107.14661897 86.99736293 107.10580261 92.05981006 107 97.125 C106.98674683 97.85471008 106.97349365 98.58442017 106.95983887 99.33624268 C106.91033949 101.50819183 106.83126844 103.67700458 106.7421875 105.84765625 C106.69690918 107.10457275 106.65163086 108.36148926 106.60498047 109.65649414 C105.78932272 114.3328661 103.67573615 117.3787502 100.421875 120.76953125 C89.62084009 128.31511405 70.12887871 125.27360364 57.41796875 125.2578125 C55.46853117 125.25848865 53.51909367 125.25946125 51.56965637 125.26071167 C47.50793648 125.26217507 43.44623877 125.26007891 39.38452148 125.25537109 C34.23470629 125.24968619 29.08494339 125.25295373 23.93513012 125.25894356 C19.91542686 125.26259597 15.89573554 125.26138916 11.87603188 125.25881577 C9.97984117 125.25815877 8.08364929 125.25893081 6.18745995 125.26129532 C0.12371175 125.26719855 -5.93699839 125.21724717 -12 125.125 C-12.86564449 125.11711205 -13.73128899 125.10922409 -14.62316513 125.10109711 C-17.18721052 125.07001063 -19.7481896 125.00443323 -22.3112793 124.92919922 C-23.06974309 124.92399324 -23.82820688 124.91878727 -24.60965443 124.91342354 C-30.42196367 124.68506034 -34.59129408 122.95487016 -39 119.125 C-43.48982439 114.08322077 -43.58003964 108.65456633 -43.53344727 102.16992188 C-43.54206284 101.19503311 -43.55067841 100.22014435 -43.55955505 99.2157135 C-43.58217163 96.00811869 -43.5754843 92.80140052 -43.56640625 89.59375 C-43.57164341 87.35607647 -43.57792022 85.11840515 -43.58518982 82.8807373 C-43.59558586 78.19691561 -43.59104327 73.51339788 -43.57641602 68.82958984 C-43.55922234 62.83388127 -43.58273575 56.83913049 -43.61790562 50.84352875 C-43.63988716 46.22460608 -43.63843633 41.60591238 -43.6301403 36.98695374 C-43.62932135 34.77660572 -43.63617398 32.56624081 -43.65091133 30.35594177 C-43.66837226 27.2633915 -43.65380113 24.17255992 -43.63110352 21.08007812 C-43.64279572 20.17181778 -43.65448792 19.26355743 -43.66653442 18.32777405 C-43.57241567 12.01050677 -42.16996336 8.89761965 -38 4.125 C-28.75631657 -2.80776257 -11.19607913 -0.03673888 0 0 Z M-17 31.125 C-18.00478037 32.9772367 -18.00478037 32.9772367 -18 35.125 C-17.00974907 37.79106019 -16.5722047 38.83889765 -14 40.125 C-11.14813525 40.24442813 -8.3199565 40.3033859 -5.46704102 40.31787109 C-4.58399292 40.32604858 -3.70094482 40.33422607 -2.7911377 40.34265137 C0.13793249 40.36751342 3.06695429 40.38402079 5.99609375 40.3984375 C6.99447832 40.40376118 7.99286289 40.40908485 9.02150154 40.41456985 C14.3028194 40.44130115 19.58411358 40.46067872 24.86547852 40.47509766 C30.33141145 40.49177263 35.79674461 40.53657428 41.26245022 40.5874691 C45.45653512 40.62104926 49.65047581 40.63266476 53.84468269 40.63832474 C55.86020572 40.64505961 57.87571852 40.66033926 59.89111137 40.68421555 C62.707128 40.71568117 65.52150172 40.71593248 68.33764648 40.70849609 C69.17463577 40.72490143 70.01162506 40.74130676 70.87397766 40.75820923 C73.45716879 40.78720887 73.45716879 40.78720887 77 40.125 C79.21482341 37.90676433 79.21482341 37.90676433 80 35.125 C79.52269471 32.3475097 79.52269471 32.3475097 78 30.125 C74.19086944 28.85528981 70.61360461 28.97750422 66.64477539 28.97973633 C65.79244827 28.97637772 64.94012115 28.9730191 64.06196594 28.96955872 C61.24051461 28.96004885 58.41912262 28.95810564 55.59765625 28.95703125 C53.63854447 28.9538189 51.67943293 28.95045485 49.72032166 28.94694519 C45.6121261 28.94095398 41.50395157 28.9391053 37.39575195 28.93969727 C32.12858401 28.93979893 26.86155072 28.92614176 21.59441471 28.90892506 C17.54784016 28.89781365 13.50129826 28.89577779 9.45471001 28.89630699 C7.51262383 28.89512577 5.57053684 28.89069605 3.62846565 28.88297462 C0.91375379 28.87319131 -1.8006644 28.87604613 -4.51538086 28.88208008 C-5.72103699 28.87365082 -5.72103699 28.87365082 -6.9510498 28.86505127 C-12.29642058 28.86841913 -12.29642058 28.86841913 -17 31.125 Z M-16.75562382 57.48823261 C-18.29297946 59.12553715 -18.29297946 59.12553715 -17.75 61.6875 C-17.080487 64.10102515 -17.080487 64.10102515 -16 66.125 C-11.79709018 67.48476494 -8.29812228 66.75018142 -4 66.125 C-2.66018514 66.4312434 -1.32488113 66.75951555 0 67.125 C1.33568021 66.80119874 2.66923011 66.46842449 4 66.125 C4.99 66.455 5.98 66.785 7 67.125 C8.04994141 66.91254639 8.04994141 66.91254639 9.12109375 66.69580078 C13.11262584 65.90439966 17.0031752 65.98232858 21.0625 65.9921875 C21.93140869 65.99123077 22.80031738 65.99027405 23.69555664 65.98928833 C25.52783277 65.98860956 27.36011134 65.9904427 29.19238281 65.99462891 C31.99028954 65.99998142 34.78803574 65.99467364 37.5859375 65.98828125 C39.36979202 65.98894209 41.15364644 65.99022336 42.9375 65.9921875 C44.18768921 65.98915115 44.18768921 65.98915115 45.46313477 65.98605347 C49.47008778 66.00215743 53.07240714 66.26718606 57 67.125 C60.56852192 67.22543209 64.12202291 67.03453999 67.6875 66.875 C68.64978516 66.84792969 69.61207031 66.82085938 70.60351562 66.79296875 C71.52197266 66.75300781 72.44042969 66.71304688 73.38671875 66.671875 C74.22420654 66.63932617 75.06169434 66.60677734 75.92456055 66.57324219 C78.39108368 66.29258804 78.39108368 66.29258804 80 63.125 C79.6758631 59.80259676 79.39223697 58.51723697 77 56.125 C74.09396013 55.92096157 71.28282867 55.84185099 68.37524414 55.8503418 C67.48244247 55.84523087 66.58964081 55.84011993 65.66978455 55.83485413 C62.70817425 55.82091407 59.74679552 55.82191822 56.78515625 55.82421875 C54.73253797 55.8203342 52.6799205 55.81600004 50.62730408 55.81123352 C46.32060137 55.80376178 42.01398062 55.80406946 37.70727539 55.80932617 C32.18095384 55.81512163 26.65496734 55.79819249 21.12870121 55.7749815 C16.88828053 55.76026861 12.64794099 55.75936913 8.40749931 55.76249123 C6.36968764 55.76197677 4.33187157 55.75671581 2.29408455 55.74667931 C-0.5527833 55.73437973 -3.39899275 55.74106755 -6.24584961 55.75268555 C-7.51535965 55.74121994 -7.51535965 55.74121994 -8.81051636 55.72952271 C-13.06908033 55.65323336 -13.06908033 55.65323336 -16.75562382 57.48823261 Z M-16 83.125 C-17.60019461 85.33325949 -17.60019461 85.33325949 -18 88.125 C-17.07976712 90.96428533 -17.07976712 90.96428533 -15 93.125 C-10.87584174 94.33711432 -6.70702757 94.27304717 -2.44335938 94.27026367 C-1.32777397 94.27530159 -1.32777397 94.27530159 -0.18965149 94.28044128 C2.25899951 94.28990937 4.70758186 94.29189209 7.15625 94.29296875 C8.86348498 94.29618345 10.57071969 94.29954769 12.2779541 94.30305481 C15.85213866 94.30903516 19.42629907 94.31089576 23.00048828 94.31030273 C27.57697066 94.310201 32.15329828 94.32386965 36.72974396 94.34107494 C40.25393382 94.3521987 43.77808625 94.35422185 47.30229187 94.35369301 C48.98956334 94.35487192 50.67683582 94.35928873 52.36408997 94.36702538 C54.72395667 94.37683587 57.08348712 94.37394347 59.44335938 94.36791992 C60.48462227 94.37634918 60.48462227 94.37634918 61.54692078 94.38494873 C65.44230929 94.35971596 68.57056343 94.04561792 72 92.125 C73.08223366 89.21495097 73.08223366 89.21495097 73 86.125 C71.27773504 82.87650023 71.27773504 82.87650023 68 82.125 C65.45050074 82.02896058 62.92861629 81.98854557 60.37915039 81.99560547 C59.21770256 81.99297699 59.21770256 81.99297699 58.03279114 81.99029541 C55.47105676 81.98589119 52.90939134 81.98881016 50.34765625 81.9921875 C48.56790656 81.99151398 46.78815696 81.99054355 45.00840759 81.98928833 C41.27683639 81.98781324 37.54528912 81.98995962 33.8137207 81.99462891 C29.03086215 82.00032194 24.24805977 81.99704869 19.46520329 81.99105644 C15.78921587 81.98744223 12.11324177 81.98859346 8.43725395 81.99118423 C6.67380199 81.99185133 4.91034882 81.99103265 3.14689827 81.98870468 C0.68131438 81.98616454 -1.78417872 81.99003821 -4.24975586 81.99560547 C-4.9787207 81.99358124 -5.70768555 81.99155701 -6.45874023 81.98947144 C-11.32803886 81.95549403 -11.32803886 81.95549403 -16 83.125 Z " fill="#0075FE" transform="translate(573,455.875)"/>
<path d="M0 0 C0.99515625 0.165 1.9903125 0.33 3.015625 0.5 C6.94441942 1.06182156 10.7801403 1.06377285 14.75 1 C21.66920152 0.88973384 21.66920152 0.88973384 25 2 C25.33 1.34 25.66 0.68 26 0 C26.54422607 0.0707373 27.08845215 0.14147461 27.64916992 0.21435547 C34.86966336 1.05238928 42.03294327 1.15344606 49.29711914 1.13037109 C51.32640898 1.12496293 53.35548205 1.13037343 55.38476562 1.13671875 C56.67705078 1.13542969 57.96933594 1.13414062 59.30078125 1.1328125 C60.46778564 1.13168457 61.63479004 1.13055664 62.8371582 1.12939453 C65.68055503 1.01306876 68.22148301 0.55627296 71 0 C71.495 0.495 71.495 0.495 72 1 C75.46050175 1.24750609 78.92027118 1.38434034 82.38671875 1.5234375 C87.39516645 2.18401114 90.63411644 3.5335615 94.09733582 7.2517395 C100.13135996 15.96744999 98.28154148 29.78410105 98.23046875 40.0703125 C98.22927257 41.68447838 98.22882471 43.29864497 98.2290802 44.91281128 C98.22752813 48.27281136 98.2193369 51.63270297 98.20581055 54.99267578 C98.18879534 59.27011573 98.18499789 63.54743745 98.18575573 67.8249073 C98.18548212 71.15031026 98.17997089 74.47568808 98.17275429 77.80108261 C98.16960372 79.37732631 98.16760881 80.95357282 98.16686058 82.52981949 C98.14114331 108.370631 98.14114331 108.370631 93 115 C86.79114975 119.65380223 81.31951305 119.56583564 73.73413086 119.50170898 C72.51379654 119.50711197 71.29346222 119.51251495 70.03614807 119.51808167 C66.70532441 119.5284139 63.37550133 119.52090538 60.04476619 119.50437045 C56.55088238 119.49046713 53.05702713 119.4969859 49.56312561 119.50050354 C43.69816769 119.50320116 37.83341495 119.48976769 31.96850586 119.46655273 C25.19680459 119.43993326 18.42544598 119.43820143 11.65371031 119.4499411 C5.12630469 119.46073516 -1.4009775 119.45451989 -7.92837334 119.44038582 C-10.70057546 119.43464134 -13.47268681 119.43469649 -16.24489021 119.43945122 C-20.11789962 119.44512721 -23.9905687 119.42586585 -27.86352539 119.40405273 C-29.58196152 119.41080521 -29.58196152 119.41080521 -31.33511353 119.41769409 C-37.75600894 119.35760178 -42.72278331 119.05925453 -47.64453125 114.46484375 C-51.78907247 109.04505908 -52.15630799 105.85614228 -52.17700195 99.14746094 C-52.18357315 98.23021744 -52.19014435 97.31297394 -52.19691467 96.36793518 C-52.21667305 93.32341434 -52.22831636 90.27894291 -52.23828125 87.234375 C-52.24235678 86.19560463 -52.2464323 85.15683426 -52.25063133 84.086586 C-52.27150361 78.58783669 -52.28579992 73.08911241 -52.29516602 67.59033203 C-52.30622856 61.90956109 -52.3406236 56.22918207 -52.38033772 50.54854965 C-52.40648135 46.18191804 -52.4148559 41.81538006 -52.41844749 37.44867706 C-52.42331983 35.35471197 -52.43495215 33.26075123 -52.45348549 31.16686249 C-52.47782701 28.23429829 -52.47692079 25.30275144 -52.4699707 22.37011719 C-52.48278076 21.50651077 -52.49559082 20.64290436 -52.50878906 19.75312805 C-52.46212261 14.34506521 -51.5796893 11.29891864 -48 7 C-42.89586729 2.39383145 -38.73736477 1.78378355 -32.0625 1.4375 C-31.28068359 1.3957666 -30.49886719 1.3540332 -29.69335938 1.31103516 C-23.46264642 1.00935044 -17.23761357 0.89371454 -11 0.875 C-10.13383057 0.87040771 -9.26766113 0.86581543 -8.37524414 0.86108398 C-2.24714551 0.87642725 -2.24714551 0.87642725 0 2 C0 1.34 0 0.68 0 0 Z M40 31 C38.19606135 36.41181595 38.07805105 42.59268886 40.125 47.9375 C44.34091372 52.57500509 48.49654707 54.7253035 54.69140625 55.1640625 C59.90742333 54.79338108 63.63610085 52.22401206 67.4375 48.8125 C69.60621208 44.90881825 70.19847189 41.45035038 70 37 C68.55307549 32.35461077 66.8785766 28.99204481 63 26 C54.52056843 22.31329062 46.10827468 23.84665178 40 31 Z M-7 57 C-9.47390595 59.9539623 -11.71627007 63.04070479 -13.9375 66.1875 C-15.14625944 67.87302438 -16.35589533 69.55792056 -17.56640625 71.2421875 C-18.14793457 72.05526367 -18.72946289 72.86833984 -19.32861328 73.70605469 C-20.81137983 75.74112254 -22.33306475 77.72669083 -23.90234375 79.6953125 C-25.12630859 81.23832031 -25.12630859 81.23832031 -26.375 82.8125 C-27.43847656 84.12154297 -27.43847656 84.12154297 -28.5234375 85.45703125 C-30.31125539 88.53605094 -30.37004863 90.49453936 -30 94 C-28.09039516 95.90960484 -24.66454928 95.185192 -22.13208008 95.22119141 C-21.41315079 95.2326973 -20.6942215 95.24420319 -19.95350647 95.25605774 C-17.55889234 95.29294523 -15.16425227 95.32249907 -12.76953125 95.3515625 C-11.10055688 95.37468895 -9.43158615 95.39807938 -7.76261902 95.42172241 C-4.24941396 95.47030139 -0.7361849 95.51518609 2.77709961 95.55761719 C7.24301322 95.61190636 11.70872451 95.67585445 16.17446423 95.74279213 C19.63119941 95.79337242 23.08799185 95.83828473 26.5448246 95.88163376 C28.18839247 95.90296913 29.83193848 95.92607531 31.47545433 95.9510994 C47.69946374 97.12194303 47.69946374 97.12194303 63 94 C62.56984727 88.83816728 59.90828969 85.85921561 56.75 82 C56.27175781 81.39671875 55.79351563 80.7934375 55.30078125 80.171875 C49.3977249 72.25236384 49.3977249 72.25236384 40.75 68.625 C36.9519537 69.00480463 36.46668959 69.12316551 33.875 71.5 C31 74 31 74 28.63671875 74.5390625 C24.67786069 73.72969596 23.14469704 71.0135182 20.9375 67.875 C20.51662109 67.30523437 20.09574219 66.73546875 19.66210938 66.1484375 C16.9936437 62.50774015 14.49872135 58.758899 12 55 C9.69334154 52.05702196 8.29211858 51.10673564 4.75 49.8125 C-0.78055573 50.08902779 -3.22711533 53.15236533 -7 57 Z " fill="#712EFE" transform="translate(582,322)"/>
<path d="M0 0 C0.33 0 0.66 0 1 0 C1.7785951 4.13447918 2.12784778 8.0413609 2.13701439 12.24614048 C2.14208893 13.48667512 2.14716347 14.72720975 2.15239179 16.00533634 C2.15299337 17.37396463 2.15349248 18.74259296 2.15390015 20.11122131 C2.15791804 21.57143995 2.1623568 23.03165748 2.1671797 24.49187368 C2.17911441 28.50077753 2.18478642 32.50966936 2.18936086 36.51858747 C2.19532864 40.84393242 2.20693542 45.16926309 2.21765137 49.49459839 C2.2421468 59.93792522 2.25679747 70.38125677 2.26971143 80.82460347 C2.27342518 83.77536791 2.27739825 86.72613188 2.2814641 89.67689586 C2.3067003 108.01058817 2.32874788 126.34428126 2.34119225 144.6779871 C2.34412181 148.92228765 2.3470835 153.16658818 2.35009766 157.41088867 C2.35084371 158.46575387 2.35158976 159.52061907 2.35235842 160.60744988 C2.36500996 177.69259969 2.39823235 194.77764539 2.43989949 211.86274654 C2.48234995 229.41322255 2.50589079 246.96364529 2.51111281 264.51417249 C2.51452316 274.3643022 2.52623431 284.21426913 2.55921555 294.06434822 C2.58725984 302.45356218 2.59819611 310.84257997 2.58702008 319.23183716 C2.58184484 323.508984 2.58464604 327.78572029 2.60948563 332.06280708 C2.63207753 335.98575772 2.63116219 339.90800525 2.61228175 343.83096903 C2.60949559 345.24286524 2.61500264 346.65481016 2.63009469 348.06662846 C2.74153623 359.17974188 0.74002759 370.42146209 -6.37109375 379.3828125 C-16.08838316 389.03019335 -27.13944826 393.73306321 -40.6875 394.25 C-56.61350836 394.03249761 -68.0018761 386.76812512 -79 376 C-78.67 375.34 -78.34 374.68 -78 374 C-77.56429688 374.47050781 -77.12859375 374.94101562 -76.6796875 375.42578125 C-73.04830747 379.22222401 -69.92323052 381.93911281 -65 384 C-64.34 384.33 -63.68 384.66 -63 385 C-63 385.66 -63 386.32 -63 387 C-61.02 387.33 -59.04 387.66 -57 388 C-57 388.66 -57 389.32 -57 390 C-55.4221875 389.9690625 -55.4221875 389.9690625 -53.8125 389.9375 C-49.3038997 390.01141148 -45.33937646 390.87497647 -41 392 C-41 391.34 -41 390.68 -41 390 C-40.01 390.33 -39.02 390.66 -38 391 C-36.33637583 391.34820041 -34.67004829 391.68404492 -33 392 C-33 391.34 -33 390.68 -33 390 C-29.71303767 389.20046862 -28.28976808 388.90341064 -25 390 C-24.67 389.34 -24.34 388.68 -24 388 C-23.34 388.33 -22.68 388.66 -22 389 C-22 388.34 -22 387.68 -22 387 C-20.35 386.67 -18.7 386.34 -17 386 C-17 385.01 -17 384.02 -17 383 C-15.329375 382.1646875 -15.329375 382.1646875 -13.625 381.3125 C-10.14579053 379.33932108 -9.24730656 377.83786634 -8 374 C-7.34 373.360625 -6.68 372.72125 -6 372.0625 C-1.70770452 367.63607029 -1.6810083 361.92637216 -1.5859375 356.05078125 C-1.55675232 354.90819351 -1.55675232 354.90819351 -1.52697754 353.74252319 C-1.466634 351.26596036 -1.4202026 348.78938196 -1.375 346.3125 C-1.3377725 344.58894053 -1.3001717 342.86538909 -1.26220703 341.1418457 C-0.98918288 328.15444815 -0.79679935 315.16768314 -0.97167969 302.17773438 C-1.00150551 298.83107173 -0.972744 295.48726794 -0.9453125 292.140625 C-0.53903853 279.09460559 -0.53903853 279.09460559 -5.9375 267.75 C-6.64777344 267.10546875 -7.35804688 266.4609375 -8.08984375 265.796875 C-10 264 -10 264 -10.87890625 261.734375 C-12.52097623 257.72932627 -15.23010439 254.79177145 -18 251.5 C-19.18624778 250.06622164 -20.37112904 248.63131165 -21.5546875 247.1953125 C-22.14088867 246.48536133 -22.72708984 245.77541016 -23.33105469 245.04394531 C-25.6545835 242.19833629 -27.8992957 239.29739919 -30.125 236.375 C-39.52634434 224.06695983 -49.20207642 211.99427847 -59 200 C-58.67 199.34 -58.34 198.68 -58 198 C-51.71452617 204.72576065 -45.99406556 211.76989454 -40.44238281 219.10302734 C-32.68611614 229.30380461 -24.75731818 239.36316879 -16.64038086 249.27880859 C-12.25911025 254.64371275 -8.02106234 260.10832198 -3.828125 265.62109375 C-2.20995646 267.83331403 -2.20995646 267.83331403 -1 269 C-1.00114555 268.04014222 -1.00229111 267.08028444 -1.00347137 266.09134007 C-1.03501392 236.66136553 -0.93345701 207.23264201 -0.79807091 177.80301547 C-0.76937826 171.52249362 -0.7417471 165.24196708 -0.71398926 158.96144104 C-0.66159252 147.14095324 -0.60828157 135.32046977 -0.5546174 123.49998766 C-0.51175205 114.05329762 -0.46934294 104.60660561 -0.42724609 95.15991211 C-0.4227656 94.15451712 -0.4227656 94.15451712 -0.41819459 93.12881111 C-0.40320425 89.76453891 -0.38822144 86.40026667 -0.37324238 83.03599441 C-0.24997967 55.35732439 -0.12543194 27.67866027 0 0 Z " fill="#6A2CF3" transform="translate(507,187)"/>
<path d="M0 0 C1.9375 0.75 1.9375 0.75 3.9375 1.75 C3.9375 8.35 3.9375 14.95 3.9375 21.75 C7.8975 21.255 7.8975 21.255 11.9375 20.75 C17.05927205 20.30832148 20.68930143 20.56385107 24.9375 23.75 C24.0625 29.625 24.0625 29.625 22.9375 30.75 C21.52179877 30.83651611 20.101905 30.85704904 18.68359375 30.84765625 C17.9145874 30.84515869 17.14558105 30.84266113 16.35327148 30.84008789 C15.37044189 30.83098389 14.3876123 30.82187988 13.375 30.8125 C10.260625 30.791875 7.14625 30.77125 3.9375 30.75 C3.9375 37.35 3.9375 43.95 3.9375 50.75 C-1.0625 52.75 -1.0625 52.75 -3.359375 51.98046875 C-6.13560728 48.34462326 -5.47958997 44.48853574 -5.3125 40.0625 C-5.23 36.989375 -5.1475 33.91625 -5.0625 30.75 C-11.3325 30.75 -17.6025 30.75 -24.0625 30.75 C-25.0625 25.75 -25.0625 25.75 -24.16796875 23.453125 C-20.84122049 20.76210044 -17.5121288 21.32351871 -13.375 21.5 C-12.57771484 21.51804688 -11.78042969 21.53609375 -10.95898438 21.5546875 C-8.99297551 21.60177753 -7.02758506 21.67352101 -5.0625 21.75 C-5.07821045 21.19014404 -5.0939209 20.63028809 -5.11010742 20.0534668 C-5.17249848 17.5149141 -5.21150218 14.97652271 -5.25 12.4375 C-5.27513672 11.55642578 -5.30027344 10.67535156 -5.32617188 9.76757812 C-5.33583984 8.92001953 -5.34550781 8.07246094 -5.35546875 7.19921875 C-5.3711792 6.41893311 -5.38688965 5.63864746 -5.40307617 4.8347168 C-4.87392019 1.59567525 -3.40453646 -0.41267109 0 0 Z " fill="#7031FA" transform="translate(607.0625,209.25)"/>
<path d="M0 0 C4.57749269 2.04352352 7.07186246 4.75529705 9.30859375 9.14453125 C10.97185308 13.60808029 10.25053474 17.19272139 8.875 21.625 C6.23930822 26.36924521 3.2670552 29.24431493 -2 31 C-6.69926777 31.54601016 -10.07661414 31.48782649 -14.3125 29.25 C-21.67608724 23.08513626 -21.67608724 23.08513626 -22.23828125 17.73046875 C-22.40730774 11.93908745 -22.05371947 8.48042678 -18 4 C-12.72382301 -1.01236814 -6.89625398 -0.91886901 0 0 Z " fill="#7C36FD" transform="translate(498,86)"/>
<path d="M0 0 C4.85857844 2.29678253 7.63468979 5.17840611 10 10 C10.9599635 15.91078648 9.97482594 20.76840956 7 26 C2.44494144 30.32730563 -1.45360708 31.41763826 -7.58203125 31.34765625 C-12.76373566 30.60262928 -16.49317974 27.60099653 -20 23.875 C-22.03740031 18.0174741 -22.02708606 12.17268206 -19.375 6.5625 C-13.48853563 0.21131476 -8.48724028 -1.23956714 0 0 Z " fill="#009CFC" transform="translate(562,86)"/>
<path d="M0 0 C4.85901474 2.29698879 7.66907123 5.15884024 10 10 C10.78989543 14.87639528 10.65993696 19.40126326 8.4375 23.875 C5.21748026 28.00323044 2.2198504 30.45194036 -3.01953125 31.34375 C-7.75423612 31.56102135 -11.09534608 30.60310261 -15 28 C-18.71348057 24.23633726 -21.13964172 21.09950887 -21.3125 15.75 C-21.22365364 9.58998567 -18.43230997 6.60698192 -14.4375 2.125 C-10.18485811 -1.21868026 -5.1181902 -0.81616446 0 0 Z " fill="#2BF5BE" transform="translate(627,86)"/>
<path d="M0 0 C0.66 0 1.32 0 2 0 C2 22.11 2 44.22 2 67 C17.75685547 66.96519531 17.75685547 66.96519531 33.83203125 66.9296875 C40.47200619 66.91947297 47.11197545 66.90976278 53.75195312 66.90234375 C64.29990579 66.89046381 74.84782656 66.87647727 85.39575195 66.84912109 C93.07680923 66.82920964 100.7578407 66.8162889 108.43892306 66.81182301 C112.50738289 66.80921182 116.57576889 66.80305921 120.64420509 66.78853989 C124.4715197 66.7749914 128.29872989 66.77077179 132.12606621 66.77378464 C133.53257438 66.77323325 134.93908595 66.76923951 136.34557343 66.76158905 C138.26252737 66.75167116 140.17953701 66.7552151 142.09651184 66.75949097 C143.70734508 66.75672559 143.70734508 66.75672559 145.35072041 66.75390434 C148 67 148 67 151 69 C141.48623853 71.49541284 141.48623853 71.49541284 137 70 C136.01 70 135.02 70 134 70 C134 70.66 134 71.32 134 72 C133.34 71.67 132.68 71.34 132 71 C132.33 70.34 132.66 69.68 133 69 C129.535 69.495 129.535 69.495 126 70 C126 70.66 126 71.32 126 72 C125.34 72 124.68 72 124 72 C123.67 71.34 123.34 70.68 123 70 C121.515 69.505 121.515 69.505 120 69 C119.67 69.66 119.34 70.32 119 71 C118.01 71 117.02 71 116 71 C116.33 70.34 116.66 69.68 117 69 C115.90066132 69.16233124 114.80132263 69.32466248 113.66867065 69.49191284 C108.54145501 70.12862888 103.46186734 70.14017914 98.30126953 70.12939453 C96.73888802 70.13202301 96.73888802 70.13202301 95.14494324 70.13470459 C91.72421573 70.13908333 88.30354047 70.13620045 84.8828125 70.1328125 C82.50007111 70.13348637 80.11732978 70.1344571 77.73458862 70.13571167 C72.75339093 70.13718299 67.77221122 70.13505113 62.79101562 70.13037109 C56.39498539 70.12465552 49.99899694 70.12796792 43.60296822 70.13394356 C38.68921592 70.13754859 33.77547363 70.13641117 28.86172104 70.13381577 C26.50211456 70.1331473 24.14250719 70.13397213 21.78290176 70.13629532 C18.49603092 70.13882288 15.20922897 70.13498059 11.92236328 70.12939453 C10.94159317 70.13141876 9.96082306 70.13344299 8.95033264 70.13552856 C7.61307884 70.13129883 7.61307884 70.13129883 6.24880981 70.12698364 C5.47198915 70.12660662 4.6951685 70.12622959 3.89480782 70.12584114 C2 70 2 70 0 69 C0 46.23 0 23.46 0 0 Z " fill="#0C0F36" transform="translate(430,81)"/>
<path d="M0 0 C27.48020442 -0.94546158 27.48020442 -0.94546158 38.375 8.25 C46.50931119 16.12607909 50.1230707 23.81336399 50.4140625 35.28515625 C50.44304375 36.31479492 50.44304375 36.31479492 50.47261047 37.36523438 C50.53251595 39.59753125 50.57894351 41.82987825 50.625 44.0625 C50.66432492 45.61451393 50.7041256 47.16651588 50.74438477 48.71850586 C50.932354 56.4485724 51.02650616 64.17395079 50.98828125 71.90625 C50.98523987 72.60245956 50.98219849 73.29866913 50.97906494 74.01597595 C50.96174442 77.32177428 50.92846204 80.62644748 50.87548828 83.93188477 C50.86372559 85.10033936 50.85196289 86.26879395 50.83984375 87.47265625 C50.82300537 88.49625244 50.80616699 89.51984863 50.78881836 90.57446289 C50.7539549 93.18269419 50.7539549 93.18269419 53 95 C53 95.99 53 96.98 53 98 C49.04 98 45.08 98 41 98 C40.67 98.66 40.34 99.32 40 100 C40 99.34 40 98.68 40 98 C38.98591064 98.16226074 37.97182129 98.32452148 36.92700195 98.49169922 C30.36690701 99.30557561 23.76722106 99.14375998 17.16796875 99.1328125 C15.7260181 99.13348766 14.28406757 99.13445946 12.84211731 99.13571167 C9.82889719 99.13718005 6.81570687 99.13506278 3.80249023 99.13037109 C-0.0300501 99.1246898 -3.86252014 99.12794815 -7.69505787 99.13394356 C-10.67132582 99.13758568 -13.64757757 99.13639369 -16.62384605 99.13381577 C-18.03541764 99.13315575 -19.44699078 99.13394196 -20.85856056 99.13629532 C-28.96477501 99.14684251 -36.94262244 98.92202608 -45 98 C-45 97.67 -45 97.34 -45 97 C-39.04623886 96.25784472 -33.26296252 95.85785184 -27.26733398 95.88647461 C-26.03641273 95.88625557 -26.03641273 95.88625557 -24.78062439 95.8860321 C-22.10241941 95.88672172 -19.42428639 95.89446896 -16.74609375 95.90234375 C-14.87565651 95.90421132 -13.00521879 95.90563362 -11.13478088 95.90663147 C-6.23744328 95.91042998 -1.34013584 95.9202372 3.55718994 95.93133545 C8.56481519 95.94160719 13.57244536 95.94614139 18.58007812 95.95117188 C28.38673192 95.96186211 38.19336344 95.97890614 48 96 C47.96180479 87.17595578 47.90224418 78.35238034 47.81609726 69.52867317 C47.77674344 65.43055852 47.74449621 61.33265484 47.72900391 57.234375 C47.71375685 53.27241352 47.67917116 49.31103253 47.63169098 45.3493309 C47.61695949 43.84487862 47.60896376 42.34034341 47.60811615 40.83581924 C47.59492268 29.1498955 46.34436917 19.54475425 38.05078125 10.75390625 C29.6416927 3.56213338 19.19874588 1.79319202 8.5 1.375 C7.67757812 1.33632813 6.85515625 1.29765625 6.0078125 1.2578125 C4.0055299 1.16468308 2.00279738 1.08131015 0 1 C0 0.67 0 0.34 0 0 Z M50 95 C50.66 95.66 51.32 96.32 52 97 C52 96.34 52 95.68 52 95 C51.34 95 50.68 95 50 95 Z " fill="#070C2E" transform="translate(629,52)"/>
<path d="M0 0 C0.33 0 0.66 0 1 0 C1 90.42 1 180.84 1 274 C-4.62811791 268.37188209 -4.62811791 268.37188209 -6.9453125 265.50390625 C-7.45892334 264.87049316 -7.97253418 264.23708008 -8.50170898 263.58447266 C-9.30523804 262.58359619 -9.30523804 262.58359619 -10.125 261.5625 C-10.69484619 260.85657715 -11.26469238 260.1506543 -11.85180664 259.42333984 C-18.43697882 251.24756851 -24.91399462 242.98885374 -31.33984375 234.6875 C-38.66478555 225.23040595 -46.09834834 215.87781503 -53.67675781 206.62255859 C-55.46686606 204.42752918 -57.23576216 202.21584897 -59 200 C-58.505 199.01 -58.505 199.01 -58 198 C-51.71452617 204.72576065 -45.99406556 211.76989454 -40.44238281 219.10302734 C-32.68611614 229.30380461 -24.75731818 239.36316879 -16.64038086 249.27880859 C-12.25911025 254.64371275 -8.02106234 260.10832198 -3.828125 265.62109375 C-2.20995646 267.83331403 -2.20995646 267.83331403 -1 269 C-1.00114555 268.04014222 -1.00229111 267.08028444 -1.00347137 266.09134007 C-1.03501392 236.66136553 -0.93345701 207.23264201 -0.79807091 177.80301547 C-0.76937826 171.52249362 -0.7417471 165.24196708 -0.71398926 158.96144104 C-0.66159252 147.14095324 -0.60828157 135.32046977 -0.5546174 123.49998766 C-0.51175205 114.05329762 -0.46934294 104.60660561 -0.42724609 95.15991211 C-0.4227656 94.15451712 -0.4227656 94.15451712 -0.41819459 93.12881111 C-0.40320425 89.76453891 -0.38822144 86.40026667 -0.37324238 83.03599441 C-0.24997967 55.35732439 -0.12543194 27.67866027 0 0 Z " fill="#5C1BF0" transform="translate(507,187)"/>
<path d="M0 0 C0.66 0.66 1.32 1.32 2 2 C-0 6 -0 6 -1 7.9375 C-3.16145397 12.39549882 -4.52548408 16.79379369 -5.625 21.625 C-5.88539062 22.75164062 -6.14578125 23.87828125 -6.4140625 25.0390625 C-7.09706235 27.98742908 -7.09706235 27.98742908 -7 31 C-7.27313899 33.47926159 -7.57232729 35.95434629 -7.87890625 38.4296875 C-8.00715699 41.15191295 -7.56856443 43.34393258 -7 46 C-6.64659043 52.67320424 -7.11833523 59.25363792 -7.87890625 65.8828125 C-7.91886719 66.58148438 -7.95882812 67.28015625 -8 68 C-6.94458856 69.28507296 -6.94458856 69.28507296 -4.53125 69.0625 C-3.5309375 69.041875 -2.530625 69.02125 -1.5 69 C0.33294376 68.96220735 2.1672539 68.95360136 4 69 C4.33 69.33 4.66 69.66 5 70 C6.87144591 70.18596387 8.74780304 70.3233776 10.625 70.4375 C15.39878859 70.79468371 19.47388263 71.49129421 24 73 C25.33130115 73.34135927 26.66358148 73.67925956 28 74 C28 74.66 28 75.32 28 76 C28.825 76.061875 29.65 76.12375 30.5 76.1875 C34.44371917 77.10300624 36.96133446 78.68091291 40.265625 80.94140625 C41.94586983 82.17366112 41.94586983 82.17366112 44 82 C45.33333333 83.33333333 46.66666667 84.66666667 48 86 C48.99 86.33 49.98 86.66 51 87 C51 87.66 51 88.32 51 89 C51.88171875 89.14115234 51.88171875 89.14115234 52.78125 89.28515625 C55.49146364 90.15834128 56.58978744 91.34929037 58.5 93.4375 C60.87128441 96.01896644 62.84876773 97.49700746 66 99 C70.77777778 103.33333333 70.77777778 103.33333333 72 107 C72.66 107 73.32 107 74 107 C75.3440093 108.99284138 76.67541292 110.99419671 78 113 C79.66527836 114.66805382 81.33210739 116.33456018 83 118 C85.38375221 120.85582098 87.6960451 123.76074241 90.01171875 126.671875 C91.78562897 129.0551955 91.78562897 129.0551955 94 130 C94.6837045 131.32467746 95.34964186 132.65863633 96 134 C96.66 134.66 97.32 135.32 98 136 C99.01241685 137.32392972 100.01439389 138.65599167 101 140 C100.67 140.66 100.34 141.32 100 142 C95.72756895 137.28519189 91.56510044 132.5093759 87.5625 127.5625 C83.91436395 123.06959831 80.1405486 118.73078933 76.234375 114.4609375 C74.76347295 112.84088804 73.31467089 111.20044938 71.890625 109.5390625 C50.8566323 85.20411474 24.0299938 73.57565029 -7.73974609 71.15942383 C-8.48562988 71.10681396 -9.23151367 71.0542041 -10 71 C-10.10037653 65.32988397 -10.17216466 59.66030739 -10.21972656 53.98950195 C-10.23959501 52.06851165 -10.26669936 50.14757976 -10.30175781 48.22680664 C-10.61381861 30.66420837 -8.93396125 15.45575295 0 0 Z " fill="#129DFB" transform="translate(63,93)"/>
<path d="M0 0 C27.90135209 -1.24312955 50.58692797 9.15265008 71.34375 27.58984375 C81.46586626 36.85475698 90.49126466 47.25812913 99 58 C100.49699464 59.83578816 101.99704882 61.66908524 103.5 63.5 C105.7299804 66.22381689 107.95835987 68.94880801 110.1796875 71.6796875 C113.81017517 76.1370478 117.46754209 80.56659495 121.19433594 84.94360352 C123.04932019 87.12368484 124.89563056 89.31095304 126.73828125 91.50146484 C127.89484256 92.87510519 129.05654304 94.24441425 130.21875 95.61328125 C130.8478125 96.38027344 131.476875 97.14726562 132.125 97.9375 C132.66382813 98.58589844 133.20265625 99.23429687 133.7578125 99.90234375 C136.28583054 104.17135534 136.11274619 109.00324549 135.87890625 113.8359375 C135.83056641 114.89941406 135.78222656 115.96289062 135.73242188 117.05859375 C135.67634766 118.15300781 135.62027344 119.24742187 135.5625 120.375 C135.51029297 121.49261719 135.45808594 122.61023438 135.40429688 123.76171875 C135.27519184 126.50813492 135.14025096 129.25413422 135 132 C134.34 131.67 133.68 131.34 133 131 C132.97812622 129.82026611 132.97812622 129.82026611 132.95581055 128.61669922 C132.88110637 125.03565042 132.78451793 121.45551089 132.6875 117.875 C132.66494141 116.6375 132.64238281 115.4 132.61914062 114.125 C132.58369141 112.92617188 132.54824219 111.72734375 132.51171875 110.4921875 C132.47244263 108.84259033 132.47244263 108.84259033 132.43237305 107.15966797 C131.63365853 101.32287332 128.78083621 97.43606793 124.8125 93.25 C121.02025493 89.15143465 117.48211936 84.94004647 114.0234375 80.55859375 C107.96611416 72.89923702 101.6862056 65.419648 95.421875 57.9296875 C93.13931549 55.1685268 90.90700657 52.37443126 88.6875 49.5625 C85.96935802 46.14307739 83.13142302 43.05113013 80 40 C78.95506537 38.75273055 77.91376532 37.50241209 76.875 36.25 C72.45835034 31.16270939 67.32702624 27.09542965 62 23 C60.82824219 22.08734375 60.82824219 22.08734375 59.6328125 21.15625 C41.93807565 8.04903752 21.74315667 2.44195454 0 1 C0 0.67 0 0.34 0 0 Z " fill="#1311B0" transform="translate(55,165)"/>
<path d="M0 0 C0.33 0 0.66 0 1 0 C1 3.3 1 6.6 1 10 C1.66 10.33 2.32 10.66 3 11 C2.67 11.66 2.34 12.32 2 13 C2.06308658 15.12773826 2.19861783 17.25364682 2.375 19.375 C2.46523438 20.51710938 2.55546875 21.65921875 2.6484375 22.8359375 C2.90870242 25.87888756 2.90870242 25.87888756 3.6015625 28.2890625 C4 30 4 30 3 32 C3.66 32 4.32 32 5 32 C5.09796875 32.56847656 5.1959375 33.13695312 5.296875 33.72265625 C6.08979207 37.81711594 6.95616922 41.28335469 9.125 44.875 C11 48 11 48 11 51 C11.66 51 12.32 51 13 51 C13.28875 51.61875 13.5775 52.2375 13.875 52.875 C14.93720042 55.13325765 14.93720042 55.13325765 17 57 C17.5775 57.825 18.155 58.65 18.75 59.5 C21.34657004 62.38507783 23.28503364 63.07125841 27 64 C27 64.99 27 65.98 27 67 C27.804375 67.4021875 27.804375 67.4021875 28.625 67.8125 C31.41666667 69.20833333 34.20833333 70.60416667 37 72 C37 72.66 37 73.32 37 74 C37.639375 74.103125 38.27875 74.20625 38.9375 74.3125 C42.24838989 75.055761 45.33805207 76.12292802 48.5234375 77.28125 C53.88463471 78.83718105 59.25422214 79.12325243 64.80859375 79.09765625 C66.66967773 79.09282227 66.66967773 79.09282227 68.56835938 79.08789062 C69.84517578 79.07951172 71.12199219 79.07113281 72.4375 79.0625 C73.74138672 79.05798828 75.04527344 79.05347656 76.38867188 79.04882812 C79.59249552 79.03709251 82.79622363 79.02067363 86 79 C86.33 78.34 86.66 77.68 87 77 C89.32288812 76.60689586 91.61845176 76.49250305 93.96875 76.34375 C94.6390625 76.2303125 95.309375 76.116875 96 76 C96.33 75.34 96.66 74.68 97 74 C98.94168103 72.87045065 100.9287976 71.81804543 102.9375 70.8125 C104.01902344 70.26207031 105.10054688 69.71164062 106.21484375 69.14453125 C107.13394531 68.76683594 108.05304688 68.38914062 109 68 C109.66 68.33 110.32 68.66 111 69 C96.01125667 80.5389532 77.3883546 83.39358824 58.9375 81.72265625 C41.84578844 79.33618057 24.45761359 71.31211998 13.73974609 57.359375 C3 42.30124321 3 42.30124321 3 34 C2.01 33.67 1.02 33.34 0 33 C0.66 33 1.32 33 2 33 C1.8570752 32.41879395 1.71415039 31.83758789 1.56689453 31.23876953 C0.02034087 24.37585325 -0.24103053 17.89038405 -0.125 10.875 C-0.11597656 9.823125 -0.10695312 8.77125 -0.09765625 7.6875 C-0.07435853 5.12475122 -0.04165112 2.56250488 0 0 Z " fill="#5A39F1" transform="translate(53,505)"/>
<path d="M0 0 C1.72959961 -0.00386719 1.72959961 -0.00386719 3.49414062 -0.0078125 C5.30881836 0.00378906 5.30881836 0.00378906 7.16015625 0.015625 C8.36607422 0.00789063 9.57199219 0.00015625 10.81445312 -0.0078125 C11.96880859 -0.00523437 13.12316406 -0.00265625 14.3125 0 C15.37331787 0.00225586 16.43413574 0.00451172 17.52709961 0.00683594 C20.22265625 0.265625 20.22265625 0.265625 23.22265625 2.265625 C23.53515625 4.765625 23.53515625 4.765625 23.22265625 7.265625 C20.50613259 9.98214866 19.02178533 9.52347802 15.2265625 9.53125 C13.42928711 9.53511719 13.42928711 9.53511719 11.59570312 9.5390625 C10.33822266 9.53132813 9.08074219 9.52359375 7.78515625 9.515625 C5.90473633 9.52722656 5.90473633 9.52722656 3.98632812 9.5390625 C2.78685547 9.53648437 1.58738281 9.53390625 0.3515625 9.53125 C-0.7511499 9.52899414 -1.8538623 9.52673828 -2.98999023 9.52441406 C-5.77734375 9.265625 -5.77734375 9.265625 -8.77734375 7.265625 C-7.7901792 1.01358285 -6.24746146 0.01329955 0 0 Z " fill="#6F2FFA" transform="translate(599.77734375,286.734375)"/>
<path d="M0 0 C1.0415625 -0.01611328 2.083125 -0.03222656 3.15625 -0.04882812 C12.59127499 -0.05486075 12.59127499 -0.05486075 16.625 3.3125 C15.75 8.1875 15.75 8.1875 14.625 9.3125 C12.5644469 9.41243532 10.5004741 9.44330906 8.4375 9.4453125 C7.18195312 9.44660156 5.92640625 9.44789063 4.6328125 9.44921875 C3.97571289 9.44712402 3.31861328 9.4450293 2.64160156 9.44287109 C0.63338665 9.43752234 -1.37460459 9.44281691 -3.3828125 9.44921875 C-4.63835938 9.44792969 -5.89390625 9.44664062 -7.1875 9.4453125 C-8.34894531 9.44418457 -9.51039063 9.44305664 -10.70703125 9.44189453 C-13.375 9.3125 -13.375 9.3125 -14.375 8.3125 C-14.625 5.375 -14.625 5.375 -14.375 2.3125 C-9.82643839 -0.71987441 -5.35019218 -0.01643179 0 0 Z " fill="#6F30F3" transform="translate(606.375,170.6875)"/>
<path d="M0 0 C0.33 0 0.66 0 1 0 C1.01030746 1.2645401 1.02061493 2.5290802 1.03123474 3.8319397 C1.12899948 15.75019618 1.23173653 27.66840081 1.33933926 39.58657265 C1.39449879 45.71378429 1.44790764 51.84100077 1.49731445 57.96826172 C1.54506079 63.88160681 1.59740728 69.79489494 1.65294075 75.70817184 C1.67331779 77.96397864 1.69203845 80.21980103 1.70907402 82.47563553 C1.73322108 85.63566977 1.76326149 88.79559723 1.79467773 91.95556641 C1.8004332 92.88777008 1.80618866 93.81997375 1.81211853 94.78042603 C1.86328185 99.30932696 2.19103147 103.53069672 3 108 C2.7215625 108.99 2.7215625 108.99 2.4375 110 C1.74038032 113.18683284 2.72581872 114.99583276 4 118 C6.04425058 120.93219379 8.31706593 123.64788987 10.625 126.375 C11.54152344 127.47908203 11.54152344 127.47908203 12.4765625 128.60546875 C13.97669036 130.41031008 15.48451862 132.20804997 17 134 C16.67 134.66 16.34 135.32 16 136 C15.62488281 135.54109375 15.24976563 135.0821875 14.86328125 134.609375 C11.80944166 130.94784441 8.76415905 127.95028682 5 125 C2 121.5862069 2 121.5862069 2 118 C1.34 118 0.68 118 0 118 C0 117.34 0 116.68 0 116 C-0.66 116 -1.32 116 -2 116 C-2.66 114.35 -3.32 112.7 -4 111 C-3.34 111.33 -2.68 111.66 -2 112 C-1.34 75.04 -0.68 38.08 0 0 Z " fill="#6121F3" transform="translate(431,249)"/>
<path d="M0 0 C0.495 0.99 0.495 0.99 1 2 C-3.01846839 0.48274651 -6.75505717 -1.39114469 -10.5625 -3.375 C-30.24729716 -13.29192327 -51.87541543 -15.79522125 -73.15527344 -9.32080078 C-83.84735506 -5.77046032 -93.95376016 -1.04623984 -102 7 C-103.05991212 7.87813299 -104.1227529 8.75273578 -105.1875 9.625 C-111.07588914 14.65466573 -115.90273234 20.44437174 -120 27 C-120.33 26.34 -120.66 25.68 -121 25 C-108.41943393 4.97740893 -89.91002454 -8.14214787 -66.796875 -13.44140625 C-43.55337355 -18.08361394 -19.47205521 -13.66212916 0 0 Z " fill="#0F98F8" transform="translate(185,66)"/>
<path d="M0 0 C4.31417402 2.32301678 7.05195191 4.45455445 9 9 C9.3125 12.1875 9.3125 12.1875 9 15 C8.34 15.66 7.68 16.32 7 17 C4.125 17 4.125 17 1 16 C-0.3726682 14.02678947 -1.70427617 12.02456848 -3 10 C-4.5778125 9.2265625 -4.5778125 9.2265625 -6.1875 8.4375 C-9 7 -9 7 -10.0625 4.5 C-10 2 -10 2 -9 0.125 C-5.76039271 -1.6972791 -3.5202944 -0.8949901 0 0 Z " fill="#6F31EF" transform="translate(672,172)"/>
<path d="M0 0 C3.09679261 0.01225013 6.19356113 0.01902466 9.29037189 0.02449608 C16.75271665 0.03865932 24.21448606 0.07851123 31.67654896 0.14546776 C35.60082414 0.180013 39.52469223 0.20489952 43.4491272 0.20892334 C47.31219068 0.21321566 51.17439643 0.24168451 55.03719139 0.28679848 C56.49026682 0.2996723 57.94344502 0.30411749 59.39657021 0.29952049 C67.92010687 0.27875858 73.62171314 0.57950785 80.37905884 6.0133667 C77.37905884 6.0133667 77.37905884 6.0133667 74.78923035 4.53366089 C70.32070104 2.54153846 66.64853297 2.62109237 61.8163147 2.68865967 C60.39791794 2.69041199 60.39791794 2.69041199 58.9508667 2.69219971 C55.83165383 2.69937318 52.71299234 2.72759026 49.59390259 2.7555542 C47.41402169 2.76369823 45.23413479 2.77035862 43.054245 2.77560425 C37.31344256 2.79271532 31.5728765 2.82694059 25.83218384 2.86566162 C16.66982009 2.92483522 7.50734106 2.95896909 -1.65514946 2.99142838 C-4.83945018 3.00526461 -8.02362311 3.02688609 -11.20787048 3.04971313 C-21.06827691 3.10637565 -30.80423332 3.06466768 -40.62094116 2.0133667 C-40.62094116 1.6833667 -40.62094116 1.3533667 -40.62094116 1.0133667 C-37.22550023 0.83807001 -33.82955853 0.67498257 -30.43344116 0.5133667 C-29.05188843 0.44182373 -29.05188843 0.44182373 -27.64242554 0.36883545 C-18.42669477 -0.05980319 -9.22297152 -0.04066022 0 0 Z " fill="#055CFB" transform="translate(595.6209411621094,455.98663330078125)"/>
<path d="M0 0 C1 1 1 1 1.3125 3.375 C1 6 1 6 -0.75 7.6875 C-3 9 -3 9 -5 9.8125 C-7.94737294 11.56250268 -9.24522413 14.11715393 -11 17 C-12.98 16.67 -14.96 16.34 -17 16 C-18.0443145 12.77211882 -18.08529053 11.24082032 -16.9375 8 C-12.65032254 1.36178974 -7.96957144 -1.73251553 0 0 Z " fill="#7030F4" transform="translate(551,172)"/>
<path d="M0 0 C0.7425 0.53625 1.485 1.0725 2.25 1.625 C1.83675744 6.8938427 1.02055562 9.85444438 -2.75 13.625 C-6.42660638 16.38245478 -10.34065622 15.90947379 -14.75 15.625 C-16.75 13.625 -16.75 13.625 -16.875 11.3125 C-15.33313097 7.62914622 -13.00557126 6.66814328 -9.5625 4.8359375 C-7.42664734 3.67686812 -7.42664734 3.67686812 -6.75 0.625 C-3.94343623 -1.58015725 -3.25864701 -1.62932351 0 0 Z " fill="#7331FA" transform="translate(678.75,280.375)"/>
<path d="M0 0 C0.33 0 0.66 0 1 0 C1.09315306 11.47541163 1.16399321 22.95073159 1.20724869 34.42644596 C1.22802122 39.75652088 1.25614759 45.08633493 1.30175781 50.41625977 C1.34558724 55.57101908 1.36921456 60.72552929 1.37950897 65.88046074 C1.38683435 67.83581901 1.40113668 69.79116544 1.42292023 71.74641609 C1.65647213 93.60172587 -2.64962971 110.52838527 -18 127 C-19.63910507 128.36707357 -21.29861943 129.71125654 -23 131 C-23.66 130.67 -24.32 130.34 -25 130 C-20 125 -20 125 -17.75 122.8125 C-15.92892904 121.10747316 -15.92892904 121.10747316 -15 119 C-14.34 119 -13.68 119 -13 119 C-12.34 117.02 -11.68 115.04 -11 113 C-10.34 113 -9.68 113 -9 113 C-8.67 111.35 -8.34 109.7 -8 108 C-7.34 108 -6.68 108 -6 108 C-5.67 105.36 -5.34 102.72 -5 100 C-4.34 100 -3.68 100 -3 100 C-2.90912109 98.96939453 -2.90912109 98.96939453 -2.81640625 97.91796875 C-2.69072266 96.56638672 -2.69072266 96.56638672 -2.5625 95.1875 C-2.44068359 93.84751953 -2.44068359 93.84751953 -2.31640625 92.48046875 C-2 90 -2 90 -1 87 C-0.9173801 85.37457558 -0.89259092 83.74590182 -0.90234375 82.1184082 C-0.90560669 81.11976746 -0.90886963 80.12112671 -0.91223145 79.09222412 C-0.92473938 77.4629599 -0.92473938 77.4629599 -0.9375 75.80078125 C-0.94606046 73.46622757 -0.95452005 71.13167351 -0.96289062 68.79711914 C-0.96909424 67.57316437 -0.97529785 66.34920959 -0.98168945 65.08816528 C-1.08701964 43.36890483 -0.96477541 21.6997491 0 0 Z " fill="#5735F4" transform="translate(189,442)"/>
<path d="M0 0 C4.0461234 2.97487785 7.05226047 6.33720492 10.0625 10.3125 C11.03049497 11.56829069 11.99927232 12.82347862 12.96875 14.078125 C13.46632813 14.72458984 13.96390625 15.37105469 14.4765625 16.03710938 C16.96555734 19.2440835 19.51611806 22.40104995 22.0625 25.5625 C25.74465331 30.14606891 29.37117909 34.76319589 32.9375 39.4375 C37.27365858 45.10947517 41.74429829 50.66071856 46.27124023 56.18139648 C50.263817 61.05772551 54.14916759 66.01107895 58 71 C57.99476318 70.31599121 57.98952637 69.63198242 57.98413086 68.92724609 C57.81727622 43.80611778 57.81727622 43.80611778 59 32 C59.33 32 59.66 32 60 32 C60 46.52 60 61.04 60 76 C54.37188209 70.37188209 54.37188209 70.37188209 52.0546875 67.50390625 C51.54107666 66.87049316 51.02746582 66.23708008 50.49829102 65.58447266 C49.96260498 64.91722168 49.42691895 64.2499707 48.875 63.5625 C48.30515381 62.85657715 47.73530762 62.1506543 47.14819336 61.42333984 C40.56302118 53.24756851 34.08600538 44.98885374 27.66015625 36.6875 C20.79280077 27.82118701 13.84371695 19.03562281 6.7421875 10.35546875 C6.27393555 9.78103027 5.80568359 9.2065918 5.32324219 8.61474609 C4.10360046 7.12642315 2.86887771 5.65049272 1.6328125 4.17578125 C0 2 0 2 0 0 Z " fill="#4808D5" transform="translate(448,385)"/>
<path d="M0 0 C3.96 0 7.92 0 12 0 C12 0.33 12 0.66 12 1 C10.35 1.33 8.7 1.66 7 2 C6.67 2.99 6.34 3.98 6 5 C4.70644173 6.37195574 3.37701298 7.71182656 2 9 C2.66 9.33 3.32 9.66 4 10 C3.814375 10.61875 3.62875 11.2375 3.4375 11.875 C2.76313824 14.04160178 2.76313824 14.04160178 4 16 C3.855625 16.82628906 3.71125 17.65257812 3.5625 18.50390625 C2.83625985 23.01769053 2.94040713 27.37546693 3 31.9375 C3.05358915 41.20000262 2.94329438 50.45130006 2.68261719 59.70974731 C2.64424172 61.1102691 2.60940413 62.51089234 2.578125 63.91159058 C2.53310309 65.88531496 2.47388685 67.85870006 2.4140625 69.83203125 C2.3826416 70.97389893 2.3512207 72.1157666 2.31884766 73.29223633 C2 76 2 76 0 78 C0 52.26 0 26.52 0 0 Z " fill="#2069F2" transform="translate(53,164)"/>
<path d="M0 0 C0.78375 0.04125 1.5675 0.0825 2.375 0.125 C2.684375 1.300625 2.684375 1.300625 3 2.5 C4.14877153 5.40631392 4.14877153 5.40631392 7.25 6.1875 C8.796875 6.6515625 8.796875 6.6515625 10.375 7.125 C12.75 9.25 12.75 9.25 14.375 11.125 C13.625 13.5625 13.625 13.5625 12.375 16.125 C8.54001816 17.64590964 6.01601697 16.71160978 2.34765625 15.203125 C-1.04341432 13.34978742 -2.55962957 11.41668412 -4.625 8.125 C-5.0625 4.875 -5.0625 4.875 -4.625 2.125 C-2.625 0.125 -2.625 0.125 0 0 Z " fill="#722FFB" transform="translate(538.625,279.875)"/>
<path d="M0 0 C1.08667969 -0.01740234 1.08667969 -0.01740234 2.1953125 -0.03515625 C5.24306778 -0.01828676 7.44631972 0.00158772 10.015625 1.734375 C11 3.375 11 3.375 10.75 6 C10 8.375 10 8.375 9 9.375 C6.17743509 9.47507008 3.3847681 9.51375598 0.5625 9.5 C-0.22705078 9.50386719 -1.01660156 9.50773437 -1.83007812 9.51171875 C-7.74673867 9.50163067 -7.74673867 9.50163067 -10 8.375 C-10.8125 6 -10.8125 6 -11 3.375 C-8.51625009 -0.7482212 -4.28992701 -0.0686999 0 0 Z " fill="#7030F9" transform="translate(642,286.625)"/>
<path d="M0 0 C0.72896484 -0.01224609 1.45792969 -0.02449219 2.20898438 -0.03710938 C6.0338391 -0.04762685 7.80606564 0.01654376 11.0625 2.1875 C11.375 4.6875 11.375 4.6875 11.0625 7.1875 C9.0625 9.1875 9.0625 9.1875 5.21875 9.41796875 C3.66660572 9.41397524 2.1144606 9.39920957 0.5625 9.375 C-0.22253906 9.37435547 -1.00757813 9.37371094 -1.81640625 9.37304688 C-7.65656304 9.32796848 -7.65656304 9.32796848 -9.9375 8.1875 C-9.9375 5.8775 -9.9375 3.5675 -9.9375 1.1875 C-6.79347519 -0.3845124 -3.44802603 0.00303256 0 0 Z " fill="#6F2EFA" transform="translate(571.9375,286.8125)"/>
<path d="M0 0 C1.01964844 -0.01675781 2.03929687 -0.03351563 3.08984375 -0.05078125 C6.43120105 0.35755808 8.32590652 1.40242831 11.0625 3.3125 C10.1875 8.1875 10.1875 8.1875 9.0625 9.3125 C2.32529373 10.36452432 -3.53129622 10.78762419 -9.9375 8.3125 C-9.9375 6.3325 -9.9375 4.3525 -9.9375 2.3125 C-6.56812701 0.28441218 -3.90539912 0.01477452 0 0 Z " fill="#6F2FF3" transform="translate(571.9375,170.6875)"/>
<path d="M0 0 C1.04027344 -0.01417969 2.08054687 -0.02835938 3.15234375 -0.04296875 C6.03873346 0.18561782 7.66651419 0.60134622 10.0625 2.1875 C10.9375 4.125 10.9375 4.125 11.0625 6.1875 C9.0625 9.1875 9.0625 9.1875 6.9609375 9.734375 C1.48187553 10.17541404 -3.5570556 10.43653174 -8.9375 9.1875 C-10.5625 7.375 -10.5625 7.375 -10.9375 5.1875 C-10.25 3 -10.25 3 -8.9375 1.1875 C-5.74593552 0.12364517 -3.35252524 0.02072018 0 0 Z " fill="#6F30F2" transform="translate(641.9375,170.8125)"/>
<path d="M0 0 C0 3.34305401 -0.48302676 5.03377554 -2 8 C-12.04909226 17.36868497 -23.68706374 21.40023358 -37.26171875 21.21484375 C-52.21802475 20.0413818 -62.58313807 13.19901881 -73 3 C-72.67 2.34 -72.34 1.68 -72 1 C-71.56429688 1.47050781 -71.12859375 1.94101562 -70.6796875 2.42578125 C-67.04830747 6.22222401 -63.92323052 8.93911281 -59 11 C-58.34 11.33 -57.68 11.66 -57 12 C-57 12.66 -57 13.32 -57 14 C-54.03 14.495 -54.03 14.495 -51 15 C-51 15.66 -51 16.32 -51 17 C-49.4221875 16.9690625 -49.4221875 16.9690625 -47.8125 16.9375 C-43.3038997 17.01141148 -39.33937646 17.87497647 -35 19 C-35 18.34 -35 17.68 -35 17 C-34.01 17.33 -33.02 17.66 -32 18 C-30.33637583 18.34820041 -28.67004829 18.68404492 -27 19 C-27 18.34 -27 17.68 -27 17 C-23.71303767 16.20046862 -22.28976808 15.90341064 -19 17 C-18.67 16.34 -18.34 15.68 -18 15 C-17.34 15.33 -16.68 15.66 -16 16 C-16 15.34 -16 14.68 -16 14 C-14.35 13.67 -12.7 13.34 -11 13 C-11 12.01 -11 11.02 -11 10 C-9.329375 9.1646875 -9.329375 9.1646875 -7.625 8.3125 C-4.19404689 6.37956867 -3.1391379 4.83164566 -2 1 C-1.34 0.67 -0.68 0.34 0 0 Z " fill="#6B2BF4" transform="translate(501,560)"/>
<path d="M0 0 C2.09821215 -0.39938767 2.09821215 -0.39938767 4 -1 C4.99 -1 5.98 -1 7 -1 C8.47990061 -1.00484435 9.9597996 -1.01019541 11.43969727 -1.01586914 C16.40730181 -1.0337991 21.37490204 -1.04539831 26.3425293 -1.05493164 C28.49097174 -1.05998143 30.63941071 -1.06682036 32.7878418 -1.07543945 C35.8807052 -1.08752373 38.97352362 -1.09323076 42.06640625 -1.09765625 C43.51328575 -1.10539818 43.51328575 -1.10539818 44.98939514 -1.11329651 C45.88049484 -1.11337204 46.77159454 -1.11344757 47.68969727 -1.11352539 C48.86859276 -1.11685631 48.86859276 -1.11685631 50.07130432 -1.12025452 C52 -1 52 -1 54 0 C55.73868744 0.15266612 57.48247501 0.24932596 59.2265625 0.31640625 C60.2578125 0.35830078 61.2890625 0.40019531 62.3515625 0.44335938 C63.43179688 0.48267578 64.51203125 0.52199219 65.625 0.5625 C67.25695312 0.62727539 67.25695312 0.62727539 68.921875 0.69335938 C71.6144517 0.7996453 74.30712253 0.90168057 77 1 C77 1.33 77 1.66 77 2 C47.3 2 17.6 2 -13 2 C-9.20064455 -1.79935545 -4.89445448 -1.03041147 0 0 Z " fill="#036EF9" transform="translate(573,522)"/>
<path d="M0 0 C2.375 0.75 2.375 0.75 3.375 1.75 C3.44825168 4.61267567 3.46738205 7.450719 3.4375 10.3125 C3.43298828 11.11880859 3.42847656 11.92511719 3.42382812 12.75585938 C3.41200518 14.75393756 3.39406914 16.75197783 3.375 18.75 C1.065 19.08 -1.245 19.41 -3.625 19.75 C-6.07008878 16.08236683 -5.92385724 14.11568225 -5.9375 9.75 C-5.95425781 8.5125 -5.97101562 7.275 -5.98828125 6 C-5.625 2.75 -5.625 2.75 -4.26953125 0.796875 C-2.625 -0.25 -2.625 -0.25 0 0 Z " fill="#7030F7" transform="translate(538.625,197.25)"/>
<path d="M0 0 C4.875 2.75 4.875 2.75 6 5 C6.12283119 7.33093612 6.17554232 9.66586039 6.1875 12 C6.20167969 13.258125 6.21585938 14.51625 6.23046875 15.8125 C6 19 6 19 4 21 C0.9375 20.75 0.9375 20.75 -2 20 C-3.46961466 17.06077067 -3.20919862 14.39591028 -3.25 11.125 C-3.27578125 9.89007813 -3.3015625 8.65515625 -3.328125 7.3828125 C-2.98550073 3.85051946 -2.40930359 2.5234285 0 0 Z " fill="#6D30F1" transform="translate(676,196)"/>
<path d="M0 0 C2.375 0.75 2.375 0.75 3.375 1.75 C3.50153198 4.24238569 3.56019825 6.69470441 3.5625 9.1875 C3.57474609 9.88166016 3.58699219 10.57582031 3.59960938 11.29101562 C3.60489842 13.11220901 3.49669207 14.9328692 3.375 16.75 C1.375 18.75 1.375 18.75 -1.125 19.0625 C-1.95 18.959375 -2.775 18.85625 -3.625 18.75 C-5.99684142 15.19223788 -5.92324394 13.46979393 -5.9375 9.25 C-5.95425781 8.1053125 -5.97101562 6.960625 -5.98828125 5.78125 C-5.625 2.75 -5.625 2.75 -4.26953125 0.828125 C-2.625 -0.25 -2.625 -0.25 0 0 Z " fill="#7030FA" transform="translate(538.625,252.25)"/>
<path d="M0 0 C2.5 -0.3125 2.5 -0.3125 5 0 C7.86336371 2.86336371 7.30016187 4.95228346 7.3125 8.9375 C7.32925781 10.18402344 7.34601562 11.43054688 7.36328125 12.71484375 C7 16 7 16 5.48046875 17.94140625 C4.99191406 18.29074219 4.50335937 18.64007813 4 19 C-0.875 17.125 -0.875 17.125 -2 16 C-2.12569503 13.8778002 -2.17576773 11.75088655 -2.1875 9.625 C-2.20167969 8.46226562 -2.21585938 7.29953125 -2.23046875 6.1015625 C-2 3 -2 3 0 0 Z " fill="#7130F9" transform="translate(535,225)"/>
<path d="M0 0 C1.9375 0.875 1.9375 0.875 3.9375 3.875 C4.23828125 6.6875 4.23828125 6.6875 4.25 9.875 C4.26675781 10.926875 4.28351562 11.97875 4.30078125 13.0625 C3.9375 15.875 3.9375 15.875 2.66796875 17.75 C0.9375 18.875 0.9375 18.875 -3.0625 18.875 C-5.43434142 15.31723788 -5.36074394 13.59479393 -5.375 9.375 C-5.39175781 8.2303125 -5.40851562 7.085625 -5.42578125 5.90625 C-5.0625 2.875 -5.0625 2.875 -3.671875 0.9609375 C-2.0625 -0.125 -2.0625 -0.125 0 0 Z " fill="#6F30F5" transform="translate(678.0625,252.125)"/>
<path d="M0 0 C1.2375 0.1546875 1.2375 0.1546875 2.5 0.3125 C4.88854824 3.89532235 4.76898802 5.62643033 4.75 9.875 C4.75515625 11.03128906 4.7603125 12.18757812 4.765625 13.37890625 C4.5 16.3125 4.5 16.3125 2.5 18.3125 C0 18.625 0 18.625 -2.5 18.3125 C-4.88854824 14.72967765 -4.76898802 12.99856967 -4.75 8.75 C-4.75515625 7.59371094 -4.7603125 6.43742188 -4.765625 5.24609375 C-4.42753226 1.51215779 -3.77397197 0.4717465 0 0 Z " fill="#6F31F5" transform="translate(677.5,224.6875)"/>
<path d="M0 0 C4.01568206 -0.05175451 8.03123582 -0.08761724 12.04718018 -0.11120605 C13.62772254 -0.12071784 15.20825211 -0.13267577 16.78875732 -0.14709473 C19.01114355 -0.16477686 21.23311873 -0.16872827 23.45556641 -0.16845703 C24.73955322 -0.17256592 26.02354004 -0.1766748 27.34643555 -0.1809082 C30.35791016 0.06201172 30.35791016 0.06201172 32.35791016 2.06201172 C31.30460762 2.07081108 31.30460762 2.07081108 30.23002625 2.07978821 C23.56682925 2.13803041 16.90394236 2.21028312 10.24106121 2.29772663 C6.81673792 2.3421879 3.39252698 2.38149477 -0.03198242 2.40844727 C-3.98169476 2.43977088 -7.93092526 2.4945476 -11.88037109 2.55029297 C-13.69822868 2.55987785 -13.69822868 2.55987785 -15.55281067 2.56965637 C-26.69361851 2.75970127 -37.09276765 4.39595283 -45.64208984 12.06201172 C-49.98605312 17.19492238 -52.56434404 22.71334399 -54.64208984 29.06201172 C-54.97208984 29.06201172 -55.30208984 29.06201172 -55.64208984 29.06201172 C-56.42153161 22.98236592 -53.94066115 18.94208981 -50.64208984 14.06201172 C-48.14208984 11.24951172 -48.14208984 11.24951172 -45.64208984 9.06201172 C-44.89958984 8.38138672 -44.15708984 7.70076172 -43.39208984 6.99951172 C-35.81386059 1.66030474 -28.92088606 0.43069618 -19.76708984 0.31201172 C-18.62828369 0.28453857 -17.48947754 0.25706543 -16.31616211 0.22875977 C-13.13340205 0.16192626 -9.95128724 0.11607216 -6.76800537 0.08416748 C-4.5119282 0.06065521 -2.25599185 0.03058162 0 0 Z " fill="#04071B" transform="translate(487.64208984375,50.93798828125)"/>
<path d="M0 0 C0.33 0 0.66 0 1 0 C1.06058594 0.86882812 1.12117188 1.73765625 1.18359375 2.6328125 C1.26738281 3.78523438 1.35117187 4.93765625 1.4375 6.125 C1.51871094 7.26195312 1.59992188 8.39890625 1.68359375 9.5703125 C1.95372221 12.99087956 1.95372221 12.99087956 2.5703125 16.3046875 C3 19 3 19 2.4375 21 C1.74038032 24.18683284 2.72581872 25.99583276 4 29 C6.04425058 31.93219379 8.31706593 34.64788987 10.625 37.375 C11.54152344 38.47908203 11.54152344 38.47908203 12.4765625 39.60546875 C13.97669036 41.41031008 15.48451862 43.20804997 17 45 C16.67 45.66 16.34 46.32 16 47 C15.43732422 46.31164062 15.43732422 46.31164062 14.86328125 45.609375 C11.80944166 41.94784441 8.76415905 38.95028682 5 36 C2 32.5862069 2 32.5862069 2 29 C1.34 29 0.68 29 0 29 C0 28.34 0 27.68 0 27 C-0.66 27 -1.32 27 -2 27 C-2.66 25.35 -3.32 23.7 -4 22 C-3.34 22.33 -2.68 22.66 -2 23 C-1.34 15.41 -0.68 7.82 0 0 Z " fill="#5717E4" transform="translate(431,338)"/>
<path d="M0 0 C1.7074998 1.28062485 3.37373596 2.61767557 5 4 C5 4.66 5 5.32 5 6 C5.66 6 6.32 6 7 6 C8.1484375 7.390625 8.1484375 7.390625 9.375 9.25 C11.36464342 12.15569625 13.46391183 14.54572113 16 17 C20 21.66666667 20 21.66666667 20 24 C20.66 24 21.32 24 22 24 C23.4375 25.71484375 23.4375 25.71484375 25 27.9375 C27.04816804 30.98632637 27.04816804 30.98632637 30 33 C29.67 33.99 29.34 34.98 29 36 C25.73256978 32.8122632 22.72982698 29.56039258 19.875 26 C15.91864807 21.1092333 11.88608584 16.29195122 7.80615234 11.50390625 C6.53264969 10.00666114 5.26616947 8.50345162 4 7 C3.23300781 6.08992187 2.46601563 5.17984375 1.67578125 4.2421875 C0 2 0 2 0 0 Z " fill="#2189FA" transform="translate(164,235)"/>
<path d="M0 0 C0.99 0.495 0.99 0.495 2 1 C4.14911874 11.70821771 2.69985442 23.20070795 2 34 C1.01 34.495 1.01 34.495 0 35 C0 23.45 0 11.9 0 0 Z " fill="#3961FB" transform="translate(53,369)"/>
<path d="M0 0 C0.556875 0.721875 1.11375 1.44375 1.6875 2.1875 C3.91234556 4.99343066 3.91234556 4.99343066 6.3203125 7.28515625 C9.6307693 10.6390447 12.5542212 14.22944891 15.51367188 17.890625 C17.88589224 20.88158901 17.88589224 20.88158901 21 23 C21.6837045 24.32467746 22.34964186 25.65863633 23 27 C23.66 27.66 24.32 28.32 25 29 C26.01241685 30.32392972 27.01439389 31.65599167 28 33 C27.67 33.66 27.34 34.32 27 35 C21.92287326 29.39717621 17.06261371 23.662641 12.31640625 17.77734375 C9.27902165 14.13555546 6.03911847 10.70380702 2.75 7.2890625 C0.84405376 4.79601674 0.34900107 3.08647823 0 0 Z " fill="#1B95FB" transform="translate(136,200)"/>
<path d="M0 0 C1.32 0 2.64 0 4 0 C4.77956232 4.0474246 5.07796501 7.72205649 4.87890625 11.8359375 C4.83056641 12.89941406 4.78222656 13.96289062 4.73242188 15.05859375 C4.67634766 16.15300781 4.62027344 17.24742187 4.5625 18.375 C4.48418945 20.05142578 4.48418945 20.05142578 4.40429688 21.76171875 C4.27519184 24.50813492 4.14025096 27.25413422 4 30 C3.34 29.67 2.68 29.34 2 29 C1.97494385 28.19256348 1.9498877 27.38512695 1.92407227 26.55322266 C1.80834513 22.91031083 1.68551365 19.26767274 1.5625 15.625 C1.52318359 14.35398437 1.48386719 13.08296875 1.44335938 11.7734375 C1.40146484 10.56171875 1.35957031 9.35 1.31640625 8.1015625 C1.27974854 6.98088379 1.24309082 5.86020508 1.20532227 4.70556641 C1.17403987 2.03287229 1.17403987 2.03287229 0 0 Z " fill="#2533D2" transform="translate(186,267)"/>
<path d="M0 0 C4.46804583 2.23402292 6.32733462 4.85276061 9 9 C9.66 9 10.32 9 11 9 C12.07525194 11.65228812 13.09456151 14.28368454 14 17 C14.99 17.33 15.98 17.66 17 18 C17.33 18.99 17.66 19.98 18 21 C19.49985609 22.66710346 19.49985609 22.66710346 21 24 C20.67 24.66 20.34 25.32 20 26 C15.52319915 21.08010282 11.31290178 15.96496404 7.1875 10.75 C6.70756592 10.14784668 6.22763184 9.54569336 5.7331543 8.92529297 C3.49141591 6.07217138 1.43367508 3.34800424 0 0 Z " fill="#672DF6" transform="translate(382,504)"/>
<path d="M0 0 C1.33981486 -0.3062434 2.67511887 -0.63451555 4 -1 C4.66 -0.67 5.32 -0.34 6 0 C8.54615009 0.23172827 11.07396225 0.41894529 13.625 0.5625 C14.33140625 0.60568359 15.0378125 0.64886719 15.765625 0.69335938 C17.51018537 0.79944751 19.25506697 0.90022889 21 1 C21 1.33 21 1.66 21 2 C9.78 2 -1.44 2 -13 2 C-9.20064455 -1.79935545 -4.89445448 -1.03041147 0 0 Z " fill="#0366F8" transform="translate(573,522)"/>
<path d="M0 0 C3.63 0 7.26 0 11 0 C11 0.33 11 0.66 11 1 C9.35 1.33 7.7 1.66 6 2 C5.67 2.99 5.34 3.98 5 5 C3.70644173 6.37195574 2.37701298 7.71182656 1 9 C1.66 9.33 2.32 9.66 3 10 C2.814375 10.61875 2.62875 11.2375 2.4375 11.875 C1.76313824 14.04160178 1.76313824 14.04160178 3 16 C2.34 16.66 1.68 17.32 1 18 C-0.59412284 14.81175432 -0.10174735 11.37103338 -0.0625 7.875 C-0.05798828 7.12089844 -0.05347656 6.36679688 -0.04882812 5.58984375 C-0.03703499 3.72652873 -0.01909942 1.86325445 0 0 Z " fill="#164FE4" transform="translate(54,164)"/>
<path d="M0 0 C3.95827235 -0.05785647 7.9164367 -0.09354717 11.875 -0.125 C13.00292969 -0.14175781 14.13085938 -0.15851563 15.29296875 -0.17578125 C16.36933594 -0.18222656 17.44570313 -0.18867188 18.5546875 -0.1953125 C19.54968262 -0.20578613 20.54467773 -0.21625977 21.56982422 -0.22705078 C24 0 24 0 26 2 C25.625 4.625 25.625 4.625 25 7 C24.34 7 23.68 7 23 7 C23 5.35 23 3.7 23 2 C11.615 1.505 11.615 1.505 0 1 C0 0.67 0 0.34 0 0 Z " fill="#6D2EEF" transform="translate(597,172)"/>
<path d="M0 0 C10.84984724 -0.35465602 20.44145822 0.188851 31 3 C30.67 3.66 30.34 4.32 30 5 C28.52031676 4.85950482 27.04125484 4.71245174 25.5625 4.5625 C24.73878906 4.48128906 23.91507813 4.40007812 23.06640625 4.31640625 C21 4 21 4 20 3 C18.51562191 2.77376479 17.02222575 2.60587035 15.52734375 2.46484375 C14.62822266 2.37783203 13.72910156 2.29082031 12.80273438 2.20117188 C11.85720703 2.11416016 10.91167969 2.02714844 9.9375 1.9375 C8.98810547 1.84662109 8.03871094 1.75574219 7.06054688 1.66210938 C4.70737865 1.43743502 2.35389381 1.21691818 0 1 C0 0.67 0 0.34 0 0 Z " fill="#1326C7" transform="translate(55,165)"/>
<path d="M0 0 C0.33 0 0.66 0 1 0 C2.0773541 7.49175465 1.8388516 14.48905184 1 22 C0.34 22 -0.32 22 -1 22 C-1.02887814 18.52085059 -1.04675687 15.04173169 -1.0625 11.5625 C-1.07087891 10.56927734 -1.07925781 9.57605469 -1.08789062 8.55273438 C-1.09111328 7.60849609 -1.09433594 6.66425781 -1.09765625 5.69140625 C-1.10289307 4.81685791 -1.10812988 3.94230957 -1.11352539 3.04125977 C-1 1 -1 1 0 0 Z " fill="#3068FB" transform="translate(54,331)"/>
<path d="M0 0 C4.84824868 0.41556417 6.88036862 2.37448245 10 6 C12.46430702 9.5204386 12.31215232 12.78594361 12 17 C11.34 17.66 10.68 18.32 10 19 C9.98582031 18.34773438 9.97164063 17.69546875 9.95703125 17.0234375 C9.6048254 10.56950323 8.69764181 7.47914684 4 3 C1.83779383 1.1873495 1.83779383 1.1873495 0 0 Z " fill="#8437F2" transform="translate(496,87)"/>
<path d="M0 0 C-8.80872193 1.04865737 -17.17751293 0.84831606 -26 0 C-26 -0.33 -26 -0.66 -26 -1 C-4.82517591 -2.6654356 -4.82517591 -2.6654356 0 0 Z " fill="#020519" transform="translate(537,150)"/>
<path d="M0 0 C0 0.33 0 0.66 0 1 C-1.08667969 1.27263672 -1.08667969 1.27263672 -2.1953125 1.55078125 C-7.46799057 2.92167755 -12.25483705 4.30679941 -17 7 C-17 6.01 -17 5.02 -17 4 C-5.47835991 -1.92482916 -5.47835991 -1.92482916 0 0 Z " fill="#080F38" transform="translate(462,53)"/>
<path d="M0 0 C3.42529072 1.41736168 4.88433651 3.00281005 7 6 C7.70125 6.639375 8.4025 7.27875 9.125 7.9375 C11.28007829 10.30808611 11.65118266 11.86064395 12 15 C8.94433539 12.03693129 6.02864172 8.98279839 3.1875 5.8125 C2.58292969 5.13832031 1.97835938 4.46414063 1.35546875 3.76953125 C0 2 0 2 0 0 Z " fill="#682AF3" transform="translate(415,545)"/>
<path d="M0 0 C0.5775 0.37125 1.155 0.7425 1.75 1.125 C1.151875 1.269375 0.55375 1.41375 -0.0625 1.5625 C-1.81150404 2.0122439 -3.53677023 2.55392341 -5.25 3.125 C-5.9337045 4.44967746 -6.59964186 5.78363633 -7.25 7.125 C-8.24 7.785 -9.23 8.445 -10.25 9.125 C-11.24 8.795 -12.23 8.465 -13.25 8.125 C-12.280625 7.526875 -11.31125 6.92875 -10.3125 6.3125 C-7.01947958 4.41372491 -7.01947958 4.41372491 -6.25 1.125 C-3.76424847 -0.67502697 -2.91724311 -1.13448343 0 0 Z " fill="#6B2FF2" transform="translate(678.25,279.875)"/>
<path d="M0 0 C-6.88577812 1.01593448 -13.09811029 0.83854735 -20 0 C-20 -0.33 -20 -0.66 -20 -1 C-5.23783563 -2.87456055 -5.23783563 -2.87456055 0 0 Z " fill="#050823" transform="translate(604,150)"/>
<path d="M0 0 C1.32 0.33 2.64 0.66 4 1 C4.061875 1.928125 4.061875 1.928125 4.125 2.875 C4.41375 3.57625 4.7025 4.2775 5 5 C7.92914165 6.17082878 7.92914165 6.17082878 11 7 C11.66 7.66 12.32 8.32 13 9 C9.04218214 8.72387317 7.30043492 8.25946652 4.25 5.625 C2 3 2 3 0 0 Z " fill="#682BF4" transform="translate(538,280)"/>
<path d="M0 0 C0.99 0 1.98 0 3 0 C3.268125 0.598125 3.53625 1.19625 3.8125 1.8125 C4.87296728 4.0299713 4.87296728 4.0299713 6.5625 5.5 C8.26316011 7.27460185 8.58794182 8.61006256 9 11 C5.74251349 7.83299923 2.72824638 4.63766184 0 1 C0 0.67 0 0.34 0 0 Z " fill="#6132F7" transform="translate(337,449)"/>
<path d="M0 0 C0.99 0.33 1.98 0.66 3 1 C2.88637738 2.4800841 2.75877092 3.95910074 2.625 5.4375 C2.52058594 6.67306641 2.52058594 6.67306641 2.4140625 7.93359375 C2.27742188 8.61550781 2.14078125 9.29742187 2 10 C1.01 10.495 1.01 10.495 0 11 C0 7.37 0 3.74 0 0 Z " fill="#286DF9" transform="translate(53,281)"/>
<path d="M0 0 C3.57410797 2.68058098 6.31941902 5.42589203 9 9 C8.67 9.66 8.34 10.32 8 11 C6.125 10.3125 6.125 10.3125 4 9 C3.27840576 7.35636866 2.60648579 5.68949614 2 4 C1.34 3.67 0.68 3.34 0 3 C0 2.01 0 1.02 0 0 Z " fill="#2E69F9" transform="translate(286,185)"/>
<path d="M0 0 C2.81939117 2.20979308 5.53058944 4.40062046 8 7 C7.67 7.99 7.34 8.98 7 10 C3.60582235 6.87378374 1.3937282 4.43458973 0 0 Z " fill="#287AFC" transform="translate(186,261)"/>
<path d="M0 0 C0.66 0 1.32 0 2 0 C2.144375 1.093125 2.28875 2.18625 2.4375 3.3125 C2.88288104 6.93122987 2.88288104 6.93122987 4 10 C2.68 9.67 1.36 9.34 0 9 C0 6.03 0 3.06 0 0 Z " fill="#0369FC" transform="translate(554,513)"/>
<path d="M0 0 C3.9945793 2.05127045 6.10267152 3.88912162 8 8 C7.67 8.66 7.34 9.32 7 10 C5.82739389 8.71372289 4.6620717 7.42080217 3.5 6.125 C2.8503125 5.40570313 2.200625 4.68640625 1.53125 3.9453125 C0 2 0 2 0 0 Z " fill="#4152FA" transform="translate(245,335)"/>
<path d="M0 0 C3.19199167 2.41556126 5.74716687 4.68003538 8 8 C7.67 8.66 7.34 9.32 7 10 C5.82739389 8.71372289 4.6620717 7.42080217 3.5 6.125 C2.8503125 5.40570313 2.200625 4.68640625 1.53125 3.9453125 C0 2 0 2 0 0 Z " fill="#4C47F9" transform="translate(353,268)"/>
<path d="M0 0 C2.96404505 2.80804268 5.44499019 5.18315774 7 9 C4.96166576 7.7260411 2.96147874 6.38938077 1 5 C1 4.34 1 3.68 1 3 C0.34 2.34 -0.32 1.68 -1 1 C-0.67 0.67 -0.34 0.34 0 0 Z " fill="#523BF7" transform="translate(371,290)"/>
<path d="M0 0 C0.66 0 1.32 0 2 0 C2 0.66 2 1.32 2 2 C1.01 1.67 0.02 1.34 -1 1 C-0.67 0.67 -0.34 0.34 0 0 Z " fill="#18265D" transform="translate(583,49)"/>
<path d="M0 0 C1 4 1 4 1 4 Z " fill="#672BEC" transform="translate(510,421)"/>
<path d="M0 0 C1 4 1 4 1 4 Z " fill="#6B2BF0" transform="translate(510,397)"/>
<path d="M0 0 C0.66 0 1.32 0 2 0 C2 0.66 2 1.32 2 2 C1.34 2 0.68 2 0 2 C0 1.34 0 0.68 0 0 Z " fill="#753FEC" transform="translate(678,244)"/>
<path d="M0 0 C1 4 1 4 1 4 Z " fill="#372F89" transform="translate(428,146)"/>
<path d="M0 0 C4 1 4 1 4 1 Z " fill="#1B275D" transform="translate(630,50)"/>
<path d="M0 0 C4 1 4 1 4 1 Z " fill="#1B2760" transform="translate(574,50)"/>
<path d="M0 0 C0.99 0.33 1.98 0.66 3 1 C2.01 1 1.02 1 0 1 C0 0.67 0 0.34 0 0 Z " fill="#18265C" transform="translate(578,49)"/>
<path d="M0 0 C3 1 3 1 3 1 Z " fill="#067CFE" transform="translate(633,486)"/>
<path d="" fill="#672CEE" transform="translate(0,0)"/>
<path d="M0 0 C3 1 3 1 3 1 Z " fill="#7739FE" transform="translate(610,398)"/>
<path d="" fill="#6F2EF6" transform="translate(0,0)"/>
<path d="M0 0 C0.66 0.66 1.32 1.32 2 2 C1.34 2 0.68 2 0 2 C0 1.34 0 0.68 0 0 Z " fill="#783AFF" transform="translate(646,351)"/>
<path d="M0 0 C0.33 0.66 0.66 1.32 1 2 C0.34 1.67 -0.32 1.34 -1 1 C-0.67 0.67 -0.34 0.34 0 0 Z " fill="#403297" transform="translate(603,151)"/>
<path d="" fill="#22296B" transform="translate(0,0)"/>
<path d="M0 0 C2 1 2 1 2 1 Z " fill="#6847ED" transform="translate(120,588)"/>
<path d="M0 0 C2 1 2 1 2 1 Z " fill="#6E40F7" transform="translate(357,477)"/>
<path d="" fill="#6032ED" transform="translate(0,0)"/>
<path d="" fill="#642CEC" transform="translate(0,0)"/>
<path d="" fill="#652CEA" transform="translate(0,0)"/>
<path d="" fill="#783BFD" transform="translate(0,0)"/>
<path d="" fill="#692BEF" transform="translate(0,0)"/>
<path d="" fill="#6E2EF5" transform="translate(0,0)"/>
<path d="M0 0 C2 1 2 1 2 1 Z " fill="#783AFE" transform="translate(589,375)"/>
<path d="" fill="#7738FE" transform="translate(0,0)"/>
<path d="" fill="#403194" transform="translate(0,0)"/>
<path d="M0 0 C2 1 2 1 2 1 Z " fill="#42309A" transform="translate(578,152)"/>
<path d="" fill="#423299" transform="translate(0,0)"/>
<path d="" fill="#3F309A" transform="translate(0,0)"/>
<path d="M0 0 C2 1 2 1 2 1 Z " fill="#423295" transform="translate(611,151)"/>
<path d="" fill="#1F2967" transform="translate(0,0)"/>
<path d="M0 0 C2 1 2 1 2 1 Z " fill="#1BA3F5" transform="translate(99,57)"/>
<path d="M0 0 C2 1 2 1 2 1 Z " fill="#192860" transform="translate(598,50)"/>
<path d="M0 0 C2 1 2 1 2 1 Z " fill="#182861" transform="translate(534,50)"/>
<path d="M0 0 C2 1 2 1 2 1 Z " fill="#1A2661" transform="translate(521,50)"/>
<path d="" fill="#18265C" transform="translate(0,0)"/>
<path d="M0 0 C2 1 2 1 2 1 Z " fill="#1A265E" transform="translate(460,50)"/>
<path d="M0 0 C2 1 2 1 2 1 Z " fill="#1AA1F4" transform="translate(126,50)"/>
<path d="" fill="#256FF4" transform="translate(0,0)"/>
<path d="" fill="#6E41EF" transform="translate(0,0)"/>
<path d="" fill="#6D3EF0" transform="translate(0,0)"/>
<path d="" fill="#674BEF" transform="translate(0,0)"/>
<path d="" fill="#6844F0" transform="translate(0,0)"/>
<path d="" fill="#674AEE" transform="translate(0,0)"/>
<path d="" fill="#723DF0" transform="translate(0,0)"/>
<path d="" fill="#256BF4" transform="translate(0,0)"/>
<path d="" fill="#634BEE" transform="translate(0,0)"/>
<path d="" fill="#664BEE" transform="translate(0,0)"/>
<path d="" fill="#057EFF" transform="translate(0,0)"/>
<path d="" fill="#067DFE" transform="translate(0,0)"/>
<path d="" fill="#097EFF" transform="translate(0,0)"/>
<path d="" fill="#0A7CFE" transform="translate(0,0)"/>
<path d="" fill="#644EF2" transform="translate(0,0)"/>
<path d="" fill="#713AF5" transform="translate(0,0)"/>
<path d="" fill="#723AF3" transform="translate(0,0)"/>
<path d="" fill="#0A7FFC" transform="translate(0,0)"/>
<path d="" fill="#0B7DFF" transform="translate(0,0)"/>
<path d="" fill="#077CFF" transform="translate(0,0)"/>
<path d="" fill="#5B54F3" transform="translate(0,0)"/>
<path d="" fill="#077CFF" transform="translate(0,0)"/>
<path d="" fill="#0680FD" transform="translate(0,0)"/>
<path d="" fill="#6D40F8" transform="translate(0,0)"/>
<path d="" fill="#3964FE" transform="translate(0,0)"/>
<path d="" fill="#5C3CF1" transform="translate(0,0)"/>
<path d="" fill="#3D66F6" transform="translate(0,0)"/>
<path d="" fill="#316BF8" transform="translate(0,0)"/>
<path d="" fill="#5E3AF1" transform="translate(0,0)"/>
<path d="" fill="#6037EC" transform="translate(0,0)"/>
<path d="" fill="#5E35EA" transform="translate(0,0)"/>
<path d="" fill="#684CF6" transform="translate(0,0)"/>
<path d="" fill="#632EEB" transform="translate(0,0)"/>
<path d="" fill="#7440F9" transform="translate(0,0)"/>
<path d="" fill="#783CFF" transform="translate(0,0)"/>
<path d="" fill="#793BFD" transform="translate(0,0)"/>
<path d="" fill="#672BED" transform="translate(0,0)"/>
<path d="" fill="#6A2BF1" transform="translate(0,0)"/>
<path d="" fill="#6B2BED" transform="translate(0,0)"/>
<path d="" fill="#7739FE" transform="translate(0,0)"/>
<path d="" fill="#4462F4" transform="translate(0,0)"/>
<path d="" fill="#783CFF" transform="translate(0,0)"/>
<path d="" fill="#753BFD" transform="translate(0,0)"/>
<path d="" fill="#6B2CF3" transform="translate(0,0)"/>
<path d="" fill="#6C2DF2" transform="translate(0,0)"/>
<path d="" fill="#6B2DF3" transform="translate(0,0)"/>
<path d="" fill="#7C3CFF" transform="translate(0,0)"/>
<path d="" fill="#7737FE" transform="translate(0,0)"/>
<path d="" fill="#7838FE" transform="translate(0,0)"/>
<path d="" fill="#7A3BFF" transform="translate(0,0)"/>
<path d="" fill="#7C3AFF" transform="translate(0,0)"/>
<path d="" fill="#7B3CFF" transform="translate(0,0)"/>
<path d="" fill="#6F2EF4" transform="translate(0,0)"/>
<path d="" fill="#7A3BFF" transform="translate(0,0)"/>
<path d="" fill="#702EF9" transform="translate(0,0)"/>
<path d="" fill="#793AFF" transform="translate(0,0)"/>
<path d="" fill="#7A39FF" transform="translate(0,0)"/>
<path d="" fill="#7939FF" transform="translate(0,0)"/>
<path d="" fill="#7B3BFF" transform="translate(0,0)"/>
<path d="" fill="#763FF6" transform="translate(0,0)"/>
<path d="" fill="#7431FB" transform="translate(0,0)"/>
<path d="" fill="#7434FC" transform="translate(0,0)"/>
<path d="" fill="#7B3EFA" transform="translate(0,0)"/>
<path d="" fill="#7A40FC" transform="translate(0,0)"/>
<path d="" fill="#7534FB" transform="translate(0,0)"/>
<path d="" fill="#7533FB" transform="translate(0,0)"/>
<path d="" fill="#7637FD" transform="translate(0,0)"/>
<path d="" fill="#6343FD" transform="translate(0,0)"/>
<path d="" fill="#783EF1" transform="translate(0,0)"/>
<path d="" fill="#7940F9" transform="translate(0,0)"/>
<path d="" fill="#783EF8" transform="translate(0,0)"/>
<path d="" fill="#773CFA" transform="translate(0,0)"/>
<path d="" fill="#306FF5" transform="translate(0,0)"/>
<path d="" fill="#7A3EF9" transform="translate(0,0)"/>
<path d="" fill="#2F71F3" transform="translate(0,0)"/>
<path d="" fill="#7543F3" transform="translate(0,0)"/>
<path d="" fill="#793BFB" transform="translate(0,0)"/>
<path d="" fill="#5457FC" transform="translate(0,0)"/>
<path d="" fill="#773BF8" transform="translate(0,0)"/>
<path d="" fill="#753CFA" transform="translate(0,0)"/>
<path d="" fill="#743DEC" transform="translate(0,0)"/>
<path d="" fill="#7541EF" transform="translate(0,0)"/>
<path d="" fill="#733DEF" transform="translate(0,0)"/>
<path d="" fill="#7640EF" transform="translate(0,0)"/>
<path d="" fill="#7736FC" transform="translate(0,0)"/>
<path d="" fill="#783EFA" transform="translate(0,0)"/>
<path d="" fill="#7440F0" transform="translate(0,0)"/>
<path d="" fill="#7637F9" transform="translate(0,0)"/>
<path d="" fill="#753FF8" transform="translate(0,0)"/>
<path d="" fill="#7636FC" transform="translate(0,0)"/>
<path d="" fill="#773FF5" transform="translate(0,0)"/>
<path d="" fill="#7636FC" transform="translate(0,0)"/>
<path d="" fill="#743BF2" transform="translate(0,0)"/>
<path d="" fill="#6E3BE0" transform="translate(0,0)"/>
<path d="" fill="#6D3BE2" transform="translate(0,0)"/>
<path d="" fill="#6B3CE0" transform="translate(0,0)"/>
<path d="" fill="#6A3BE2" transform="translate(0,0)"/>
<path d="" fill="#733DF5" transform="translate(0,0)"/>
<path d="" fill="#603ACD" transform="translate(0,0)"/>
<path d="" fill="#3E338E" transform="translate(0,0)"/>
<path d="" fill="#3E318D" transform="translate(0,0)"/>
<path d="" fill="#3F3296" transform="translate(0,0)"/>
<path d="" fill="#413196" transform="translate(0,0)"/>
<path d="" fill="#41329B" transform="translate(0,0)"/>
<path d="" fill="#40339B" transform="translate(0,0)"/>
<path d="" fill="#43329D" transform="translate(0,0)"/>
<path d="" fill="#41339A" transform="translate(0,0)"/>
<path d="" fill="#42319D" transform="translate(0,0)"/>
<path d="" fill="#40309D" transform="translate(0,0)"/>
<path d="" fill="#44319C" transform="translate(0,0)"/>
<path d="" fill="#4934A5" transform="translate(0,0)"/>
<path d="" fill="#45369F" transform="translate(0,0)"/>
<path d="" fill="#3F2D90" transform="translate(0,0)"/>
<path d="" fill="#433395" transform="translate(0,0)"/>
<path d="" fill="#413194" transform="translate(0,0)"/>
<path d="" fill="#3F2D93" transform="translate(0,0)"/>
<path d="" fill="#3B338C" transform="translate(0,0)"/>
<path d="" fill="#352F87" transform="translate(0,0)"/>
<path d="" fill="#282C74" transform="translate(0,0)"/>
<path d="" fill="#242B71" transform="translate(0,0)"/>
<path d="" fill="#232A6A" transform="translate(0,0)"/>
<path d="" fill="#21296B" transform="translate(0,0)"/>
<path d="" fill="#212868" transform="translate(0,0)"/>
<path d="" fill="#249DEF" transform="translate(0,0)"/>
<path d="" fill="#1FA0F4" transform="translate(0,0)"/>
<path d="" fill="#212967" transform="translate(0,0)"/>
<path d="" fill="#219EEF" transform="translate(0,0)"/>
<path d="" fill="#1C2863" transform="translate(0,0)"/>
<path d="" fill="#1E2660" transform="translate(0,0)"/>
<path d="" fill="#1EA2F1" transform="translate(0,0)"/>
<path d="" fill="#1C255D" transform="translate(0,0)"/>
<path d="" fill="#1A255A" transform="translate(0,0)"/>
<path d="" fill="#1C275F" transform="translate(0,0)"/>
<path d="" fill="#14255E" transform="translate(0,0)"/>
<path d="" fill="#19255C" transform="translate(0,0)"/>
<path d="" fill="#1B2860" transform="translate(0,0)"/>
<path d="" fill="#1B2B60" transform="translate(0,0)"/>
<path d="" fill="#1A265D" transform="translate(0,0)"/>
<path d="" fill="#192961" transform="translate(0,0)"/>
<path d="" fill="#1A2864" transform="translate(0,0)"/>
<path d="" fill="#1B2962" transform="translate(0,0)"/>
<path d="" fill="#182661" transform="translate(0,0)"/>
<path d="" fill="#1A2960" transform="translate(0,0)"/>
<path d="" fill="#162860" transform="translate(0,0)"/>
<path d="" fill="#172963" transform="translate(0,0)"/>
<path d="" fill="#1B2860" transform="translate(0,0)"/>
<path d="" fill="#1A275F" transform="translate(0,0)"/>
<path d="" fill="#1C275D" transform="translate(0,0)"/>
<path d="" fill="#1C285F" transform="translate(0,0)"/>
<path d="" fill="#1E275E" transform="translate(0,0)"/>
<path d="" fill="#19265E" transform="translate(0,0)"/>
<path d="" fill="#1B265F" transform="translate(0,0)"/>
<path d="" fill="#209FF3" transform="translate(0,0)"/>
<path d="" fill="#192559" transform="translate(0,0)"/>
<path d="" fill="#19275C" transform="translate(0,0)"/>
<path d="" fill="#19245B" transform="translate(0,0)"/>
<path d="" fill="#1B265B" transform="translate(0,0)"/>
<path d="" fill="#19245D" transform="translate(0,0)"/>
<path d="" fill="#19255A" transform="translate(0,0)"/>
<path d="" fill="#1B265D" transform="translate(0,0)"/>
<path d="" fill="#1A235A" transform="translate(0,0)"/>
<path d="" fill="#1A2559" transform="translate(0,0)"/>
<path d="" fill="#1B245A" transform="translate(0,0)"/>
<path d="" fill="#19245D" transform="translate(0,0)"/>
<path d="" fill="#192459" transform="translate(0,0)"/>
</svg>
